<svg xmlns="http://www.w3.org/2000/svg" viewBox="0 0 200.24 200.24"><defs><style>.a{fill:#fa5f61;}.b{fill:#f75a60;}.c{fill:#f35460;}.d{fill:#ef4f5f;}.e{fill:#fe6461;}</style></defs><title>red</title><rect class="a" width="200.24" height="200.24"/><path class="b" d="M0,34.85V32.93a4.91,4.91,0,0,1,1.61.45l14.68,5.88a2.08,2.08,0,0,0,1.95.15A2.77,2.77,0,0,0,19,39.24q3.69-2,7.37-4L46.89,23.9l11-6.1L58.12,18a3.3,3.3,0,0,0,.32,1.39q6.94,17,13.86,33.93,2.74,6.7,5.5,13.4V67h-1A1.23,1.23,0,0,0,76,66.1l-2.29-1q-8.9-4-17.79-8c-5.9-2.65-11.81-5.27-17.71-7.92s-12-5.43-18-8.13c-0.44-.2-1-0.71-1.42-0.34s0.09,1,.32,1.5q7,14,14,28a3.79,3.79,0,0,1,.6,1.68h0l-0.48-.24a2.63,2.63,0,0,0-.31-0.64q-3.14-3.54-6.3-7.05c-2.43-2.7-4.89-5.37-7.31-8.07q-5-5.56-10-11.15c-2.5-2.8-5-5.6-7.49-8.39A3.65,3.65,0,0,0,0,34.85Z" transform="translate(0.12 0.12)"/><path class="c" d="M0,171.17V159.65a5.64,5.64,0,0,0,.75-0.35l31.72-20.9a1.61,1.61,0,0,0,.88-1.07,1.37,1.37,0,0,0,1-.72l0.48,0.24a4.36,4.36,0,0,1,0,.48l-6.53,38.23c-0.08.46-.41,1.07,0.05,1.33s0.79-.38,1.1-0.7q18.41-18.38,36.8-36.78c0.39-.39.82-0.75,1.24-1.13a1.65,1.65,0,0,1,.48,1.64c0,6.43,0,12.85,0,19.28a62,62,0,0,1-.23,9.08H67.48a6.73,6.73,0,0,0-2.13.29c-9.42,2.36-18.84,4.74-28.27,7.07-3.14.78-6.24,1.71-9.44,2.25L1.93,171.46A6,6,0,0,0,0,171.17Z" transform="translate(0.12 0.12)"/><path class="d" d="M18.28,39.41a2.08,2.08,0,0,1-1.95-.15L1.65,33.38A4.91,4.91,0,0,0,0,32.93V27.65a54.89,54.89,0,0,0,3.41-5.9q4-7.14,8-14.33C12.77,5,14.27,2.61,15.4,0h30c-0.16.27-.31,0.56-0.49,0.82l-11,15.84c-3.72,5.34-7.47,10.67-11.15,16C21.24,35,19.59,37.07,18.28,39.41Z" transform="translate(0.12 0.12)"/><path class="e" d="M134.68,0h20.4c0.14,3.08.94,6.07,1.33,9.12,0.37,2.89,1,5.73,1.31,8.64a9.24,9.24,0,0,1-.92.25l-15.59,2.63q-16.24,2.71-32.48,5.4c-3.35.55-6.66,1.27-10,1.57a1.7,1.7,0,0,1,.88-1.07Q103,24,106.39,21.5q13-9.7,26-19.41C133.23,1.49,134.25,1.09,134.68,0Z" transform="translate(0.12 0.12)"/><path class="c" d="M0,113.33v-6.24c0.68,0.21,1.35.47,2,.63,2.32,0.55,4.46,1.67,6.84,2a4.79,4.79,0,0,0,.79.24L20,111.25l14.82,1.84c4.27,0.53,8.53,1.12,12.81,1.56,3.41,0.35,6.78,1.05,10.22,1.08a77.58,77.58,0,0,0,3.2,7.34c2.18,4.93,4.42,9.82,6.63,14.73h-1a1.53,1.53,0,0,0-1.07-.88c-2.13-1-4.28-2-6.41-3q-14.34-6.8-28.67-13.61c-5.84-2.78-11.67-5.6-17.5-8.38-0.9-.43-1.83-0.77-2.88-1.21a2,2,0,0,0,.7,1.35c2.15,2.19,4.32,4.37,6.42,6.62,3.55,3.79,7.3,7.39,10.84,11.18,1.66,1.78,3.38,3.51,5.07,5.26a1.85,1.85,0,0,1,.63,1,5.54,5.54,0,0,1-1.75-1c-3.39-2.32-6.77-4.67-10.16-7q-9.47-6.52-19-13A9.9,9.9,0,0,0,0,113.33Z" transform="translate(0.12 0.12)"/><path class="a" d="M58.12,18l-0.24-.24c0.6-3.05,1.24-6.1,1.8-9.17A80.68,80.68,0,0,0,61.24,0H84c0.22,0.51.4,1,.65,1.53L96.89,26a3.76,3.76,0,0,1,.6,1.67,48,48,0,0,1-6.42-1.48l-31.3-7.83C59.23,18.21,58.67,18.14,58.12,18Z" transform="translate(0.12 0.12)"/><path class="a" d="M157.72,17.8c-0.26-2.91-.93-5.75-1.31-8.64-0.4-3-1.19-6-1.33-9.12h11.28a2.16,2.16,0,0,0,.8,1.16q14.67,14.67,29.34,29.33a1.15,1.15,0,0,0,1,.62,11,11,0,0,0,0-1.66c-1-6.35-2-12.69-3-19C194,7,193.33,3.55,193,0h7q0,14.17,0,28.33a5.11,5.11,0,0,0-1.12,1.82c-1,1.7-1,1.7-2.79,1.05l-14-4.92c-5.28-1.86-10.54-3.78-15.84-5.57A81.73,81.73,0,0,0,158,18Z" transform="translate(0.12 0.12)"/><path class="e" d="M61.24,0a80.68,80.68,0,0,1-1.56,8.59c-0.56,3.06-1.2,6.11-1.8,9.17l-11,6.1L26.34,35.24q-3.67,2-7.37,4a2.77,2.77,0,0,1-.69.17c1.31-2.34,3-4.45,4.47-6.65,3.68-5.37,7.43-10.7,11.15-16l11-15.84C45.1,0.61,45.24.32,45.4,0H61.24Z" transform="translate(0.12 0.12)"/><path class="a" d="M0,171.17a6,6,0,0,1,1.89.29l25.71,6.43A9.31,9.31,0,0,1,27.2,179c-1.77,3.21-3.57,6.41-5.34,9.62q-3.12,5.65-6.21,11.32L0,200v-28.8Z" transform="translate(0.12 0.12)"/><path class="a" d="M0,113.33a9.9,9.9,0,0,1,3,1.76q9.5,6.49,19,13c3.39,2.33,6.77,4.68,10.16,7a5.54,5.54,0,0,0,1.75,1l0.48,0.48a1.37,1.37,0,0,1-1,.72C26.29,139,19.28,141,12.21,142.84,8.15,143.87,4.1,144.92,0,146Q0,129.65,0,113.33Z" transform="translate(0.12 0.12)"/><path class="c" d="M33.16,71.57l0.48,0.24-0.24.72a0.92,0.92,0,0,0-1.08.24C23.84,77.86,15.37,83,6.87,88A63.82,63.82,0,0,1,0,92V61.73a7.37,7.37,0,0,1,1.06.16C8.89,64.26,16.66,66.66,24.45,69,27.35,69.88,30.21,70.9,33.16,71.57Z" transform="translate(0.12 0.12)"/><path class="a" d="M33.16,71.57c-3-.67-5.82-1.68-8.72-2.56C16.66,66.66,8.89,64.26,1.1,61.89A7.37,7.37,0,0,0,0,61.73V34.85a3.65,3.65,0,0,1,1.73,1.42c2.51,2.79,5,5.6,7.49,8.39q5,5.58,10,11.15c2.43,2.7,4.88,5.38,7.31,8.07q3.17,3.51,6.3,7.05A2.63,2.63,0,0,1,33.16,71.57Z" transform="translate(0.12 0.12)"/><path class="d" d="M0,92A63.82,63.82,0,0,0,6.87,88c8.5-5.06,17-10.17,25.45-15.26a0.92,0.92,0,0,1,1.08-.24c-0.16.28-.3,0.56-0.48,0.83q-8.52,13-17.05,25.95c-2.17,3.31-4.32,6.63-6.47,9.94l-0.47.48c-2.38-.34-4.53-1.46-6.84-2-0.69-.17-1.36-0.42-2-0.63V92Z" transform="translate(0.12 0.12)"/><path class="e" d="M193,0c0.33,3.5,1,6.95,1.53,10.41,1,6.35,2,12.69,3,19a11,11,0,0,1,0,1.66,1.15,1.15,0,0,1-1-.62Q181.83,15.88,167.17,1.21a2.16,2.16,0,0,1-.8-1.16H193Z" transform="translate(0.12 0.12)"/><path class="b" d="M97.48,27.65a3.76,3.76,0,0,0-.6-1.67L84.7,1.58C84.45,1.09,84.26.56,84,0h27.6c-0.22.51-.41,1-0.65,1.54Q104.78,14,98.57,26.46a1.4,1.4,0,0,0-.36,1.42L98,28.13H97.73Z" transform="translate(0.12 0.12)"/><path class="a" d="M98.21,27.89a1.4,1.4,0,0,1,.36-1.42Q104.77,14,111,1.59c0.25-.5.44-1,0.65-1.54h23c-0.43,1-1.46,1.44-2.27,2q-13,9.73-26,19.41Q103,24,99.56,26.57a1.7,1.7,0,0,0-.88,1.07Z" transform="translate(0.12 0.12)"/><path class="d" d="M0,146c4.06-1,8.11-2.1,12.17-3.13,7.07-1.8,14.08-3.87,21.19-5.51a1.61,1.61,0,0,1-.88,1.07L0.8,159.29a5.64,5.64,0,0,1-.75.35V146Z" transform="translate(0.12 0.12)"/><path class="a" d="M15.4,0c-1.13,2.56-2.64,4.92-4,7.37q-3.92,7.2-8,14.33A54.89,54.89,0,0,1,0,27.65Q0,14.31,0,1C0,0.26.13,0,.93,0,5.75,0.07,10.58,0,15.4,0Z" transform="translate(0.12 0.12)"/><path class="c" d="M77.8,67V66.77L78,66.53c1.61,0.17,3-.64,4.46-1.07,8.45-2.48,16.87-5,25.3-7.56,0,0.35-.08.71-0.15,1.06q-3.68,18.48-7.37,37c-0.11.56-.43,1.19,0.32,1.58a1.74,1.74,0,0,0,1.27.23c1.86-.18,3.72-0.37,5.58-0.56l10.8-1.1,10.69-1,11-1.13a68.34,68.34,0,0,0,.81,7.49c0.71,5.82,1.54,11.62,2.29,17.44s1.49,11.87,2.25,17.8c0.68,5.26,1.42,10.51,2,15.78,0.11,1,.63,1.95,0,2.93-0.55-.63-1.12-1.24-1.65-1.89l-10.82-13.1L123.86,127l-9.77-11.8q-5-6-9.93-12a52.7,52.7,0,0,0-4.28-5,3.68,3.68,0,0,0-.75-1.35q-9-12.69-18-25.37A27.28,27.28,0,0,0,77.8,67h0Z" transform="translate(0.12 0.12)"/><path class="e" d="M8.93,109.73l0.47-.48a2.5,2.5,0,0,0,1.4-.61q5.08-3.18,10.15-6.36L47.3,85.9C55.88,80.56,64.46,75.24,73,69.84,74.4,69,76,68.41,77.09,67H77.8c-0.84,2-1.7,4-2.53,6.08Q67.6,91.88,60,110.69c-0.67,1.65-1.65,3.2-1.84,5H57.89c-3.44,0-6.81-.73-10.22-1.08-4.28-.44-8.54-1-12.81-1.56L20,111.25,9.72,110A4.79,4.79,0,0,1,8.93,109.73Z" transform="translate(0.12 0.12)"/><path class="d" d="M78,66.53l-0.23.24q-2.75-6.7-5.5-13.4-6.93-17-13.86-33.93A3.3,3.3,0,0,1,58.12,18c0.55,0.1,1.11.16,1.65,0.29l31.3,7.83a48,48,0,0,0,6.42,1.48l0.24,0.48Z" transform="translate(0.12 0.12)"/><path class="a" d="M77.09,67c-1,1.4-2.69,2-4.08,2.83-8.54,5.4-17.13,10.72-25.7,16.06L21,102.28q-5.08,3.16-10.15,6.36a2.5,2.5,0,0,1-1.4.61c2.16-3.31,4.3-6.64,6.47-9.94q8.52-13,17.05-25.95c0.18-.27.32-0.55,0.48-0.83l0.24-.72h0c2-.2,4-0.37,5.94-0.59,4.59-.51,9.18-1,13.76-1.57l11.51-1.32,12-1.32h0.24Z" transform="translate(0.12 0.12)"/><path class="c" d="M76.84,67l-12,1.32L53.35,69.65c-4.59.53-9.17,1.06-13.76,1.57-2,.22-4,0.4-5.94.59a3.79,3.79,0,0,0-.6-1.68q-7-14-14-28c-0.23-.47-0.82-1-0.32-1.5s1,0.14,1.42.34c6,2.69,12,5.42,18,8.13S50,54.38,55.89,57s11.86,5.35,17.79,8l2.29,1A1.23,1.23,0,0,1,76.84,67Z" transform="translate(0.12 0.12)"/><path class="b" d="M112.12,199.93H83.81c-0.12-.3-0.21-0.61-0.35-0.89l-14.9-29.8a1.43,1.43,0,0,0-.84-1A62,62,0,0,0,68,159.2c0-6.43,0-12.85,0-19.28a1.65,1.65,0,0,0-.48-1.64v-0.48h0.24l0.48-.24,0.48,0.72a2.54,2.54,0,0,0,1,1.33l46.53,46.53c0.31,0.31.66,0.58,1,.87l0.72,0.72c-0.18.44-.33,0.9-0.55,1.32q-2.34,4.72-4.71,9.42A3.41,3.41,0,0,0,112.12,199.93Z" transform="translate(0.12 0.12)"/><path class="d" d="M45.65,199.93l-18.76,0c-3.74,0-7.49,0-11.23,0q3.1-5.66,6.21-11.32c1.77-3.21,3.57-6.41,5.34-9.62a9.31,9.31,0,0,0,.44-1.11c3.2-.54,6.3-1.47,9.44-2.25,9.43-2.33,18.85-4.71,28.27-7.07a6.73,6.73,0,0,1,2.13-.29l-0.24.48c-1.36,1.92-2.73,3.83-4.07,5.76q-4.86,7-9.69,13.95C50.85,192.28,48.26,196.11,45.65,199.93Z" transform="translate(0.12 0.12)"/><path class="e" d="M67.48,137.81v0.48c-0.41.37-.84,0.73-1.24,1.13q-18.4,18.39-36.8,36.78c-0.31.31-.6,1-1.1,0.7s-0.13-.87-0.05-1.33l6.53-38.23a4.35,4.35,0,0,0,0-.48c4.1,0.26,8.2.24,12.31,0.43,6.53,0.3,13.07.36,19.61,0.52h0.72Z" transform="translate(0.12 0.12)"/><path class="d" d="M66.76,137.8c-6.54-.16-13.08-0.22-19.61-0.52-4.1-.19-8.21-0.17-12.31-0.43l-0.48-.24-0.48-.48a1.85,1.85,0,0,0-.63-1c-1.69-1.75-3.41-3.48-5.07-5.26-3.54-3.79-7.29-7.39-10.84-11.18-2.1-2.25-4.27-4.42-6.42-6.62a2,2,0,0,1-.7-1.35c1.05,0.44,2,.78,2.88,1.21,5.84,2.78,11.66,5.6,17.5,8.38q14.33,6.82,28.67,13.61c2.13,1,4.28,2,6.41,3A1.53,1.53,0,0,1,66.76,137.8Z" transform="translate(0.12 0.12)"/><path class="a" d="M67.24,168.76l0.24-.48h0.24a1.43,1.43,0,0,1,.84,1L83.46,199c0.14,0.28.23,0.59,0.35,0.89H61.49q2.92-14.66,5.84-29.31A2.31,2.31,0,0,0,67.24,168.76Z" transform="translate(0.12 0.12)"/><path class="c" d="M98.21,27.89l0.48-.24c3.39-.29,6.7-1,10-1.57q16.25-2.66,32.48-5.4l15.59-2.63a9.24,9.24,0,0,0,.92-0.25L158,18a3.75,3.75,0,0,0-.24,1.76q0,23,0,45.91a6.94,6.94,0,0,0,.24,2V68l-0.72.25h0L157,67.73a3,3,0,0,0-1.5-1.31q-28-18.66-55.95-37.3a3.93,3.93,0,0,0-1.35-.75L98,28.13Z" transform="translate(0.12 0.12)"/><path class="d" d="M68.2,137.57l-0.48.24c-2.22-4.91-4.46-9.81-6.63-14.73a77.58,77.58,0,0,1-3.2-7.34h0.23l7-3,33-14.13a1.06,1.06,0,0,1,1.22-.13q-5.81,7.31-11.63,14.61Z" transform="translate(0.12 0.12)"/><path class="d" d="M158,67.73a6.94,6.94,0,0,1-.24-2q0-23,0-45.91A3.75,3.75,0,0,1,158,18a81.72,81.72,0,0,1,8.19,2.72c5.3,1.79,10.56,3.71,15.84,5.57l14,4.92c1.82,0.64,1.81.65,2.79-1.05a5.11,5.11,0,0,1,1.12-1.82q0,2.15,0,4.3c-0.95-.14-1.9-1.27-2.85,0q-3.33,3-6.65,6l-11.3,10.14c-2.64,2.37-5.26,4.77-7.9,7.14L158.68,67.25Z" transform="translate(0.12 0.12)"/><path class="e" d="M98,28.13l0.24,0.24c0.14,0.54.25,1.09,0.42,1.62q4.37,13.14,8.75,26.28c0.18,0.53.28,1.08,0.42,1.62h0C99.38,60.42,91,63,82.5,65.46,81,65.89,79.65,66.7,78,66.53l19.69-38.4H98Z" transform="translate(0.12 0.12)"/><path class="d" d="M117.89,187.73l-0.72-.72a4.08,4.08,0,0,0-.66-1.78l-17.7-35.41a3.62,3.62,0,0,1-.6-1.92c1.37,0.24,2.75.5,4.13,0.72l26.23,4.17,17.84,2.84c0.39,0.06.8,0.26,1-.3,0.59-1,.07-2,0-2.93-0.63-5.27-1.37-10.52-2-15.78-0.76-5.93-1.48-11.87-2.25-17.8s-1.58-11.62-2.29-17.44a68.34,68.34,0,0,1-.81-7.49h0.24a8.19,8.19,0,0,0,.8.23l16.84,3,25.56,4.65,0.48-.24a1.36,1.36,0,0,0,.34-0.11c4.69-3.08,9.6-5.81,14.38-8.75a2.58,2.58,0,0,1,1.32-.5q0,10.32,0,20.63a5.05,5.05,0,0,1-1.54-.9q-6.61-4.55-13.21-9.1a0.88,0.88,0,0,0-1.06-.32c-0.85,0-1.09.71-1.46,1.26l-34.54,51.79-0.48.48q-7.55,8.09-15.11,16.17c-3.11,3.32-6.34,6.53-9.37,9.92-1.67,1.87-3.62,3.5-5.05,5.58h-0.24Z" transform="translate(0.12 0.12)"/><path class="e" d="M118.12,187.72c1.43-2.09,3.38-3.71,5.05-5.58,3-3.39,6.25-6.6,9.37-9.92q7.57-8.07,15.11-16.17a3.14,3.14,0,0,1,.44,1.36c0.5,3.07,1,6.15,1.48,9.22,1,6.38,2.08,12.76,3.1,19.14,0.13,0.82.4,1.06,1.18,0.63,1.85-1,3.72-2,5.58-3l21.36-11.63c2.24-1.22,4.47-2.47,6.7-3.71h0.24c0.16,0.66.37,1.31,0.48,2,1.19,7.52,2.4,15,3.53,22.57a65.39,65.39,0,0,1,1,7.34H165.64a1.71,1.71,0,0,0-.57-0.89l-10.93-10.92a0.87,0.87,0,0,0-.89-0.48c-0.48.2-.17,0.63-0.12,0.95q0.84,5.67,1.71,11.34h-19a2.09,2.09,0,0,1,1-1.17L151,188.22c0.34-.25.91-0.45,0.73-1S151,187,150.63,187c-4.22.27-8.46,0.29-12.68,0.4-4.51.12-9,.41-13.54,0.31a23.89,23.89,0,0,0-2.86.16A6.76,6.76,0,0,1,118.12,187.72Z" transform="translate(0.12 0.12)"/><path class="c" d="M187.73,168h-0.24a1.9,1.9,0,0,0-1.23-.67l-3.33-1-33-9.91a1.25,1.25,0,0,1-1-.69,4.75,4.75,0,0,1,.67-0.23l36.38-6.68c3.65-.67,7.3-1.31,11-2-0.13.33-.24,0.67-0.38,1q-3.83,9-7.67,18c-0.13.31-.47,0.68-0.13,1s0.75,0,1.06-.25c1.84-1.21,3.63-2.49,5.5-3.63a33.24,33.24,0,0,1,4.69-2.86q0,5.4,0,10.8l-1.75-.39C194.69,169.75,191.26,168.66,187.73,168Z" transform="translate(0.12 0.12)"/><path class="c" d="M199.93,92.21a2.58,2.58,0,0,0-1.32.5c-4.78,2.94-9.69,5.67-14.38,8.75a1.36,1.36,0,0,1-.34.11q0.28-3,.56-6.07c0.29-3.13.59-6.27,0.88-9.4s0.53-6,.8-9.05q0.55-6.07,1.13-12.14c0.22-2.34.48-4.68,0.72-7l2,0.64,9.92,3q0,11.89,0,23.79C200,87.59,199.94,89.9,199.93,92.21Z" transform="translate(0.12 0.12)"/><path class="a" d="M118.12,187.72a6.76,6.76,0,0,0,3.43.17,23.89,23.89,0,0,1,2.86-.16c4.52,0.1,9-.2,13.54-0.31,4.22-.11,8.46-0.13,12.68-0.4,0.37,0,.93-0.2,1.08.24s-0.4.71-.73,1l-14.12,10.54a2.09,2.09,0,0,0-1,1.17H112.12a3.41,3.41,0,0,1,.51-1.45q2.35-4.71,4.71-9.42c0.21-.43.37-0.88,0.55-1.32h0.24Z" transform="translate(0.12 0.12)"/><path class="a" d="M184.12,102.51a0.88,0.88,0,0,1,1.06.32q6.61,4.54,13.21,9.1a5.05,5.05,0,0,0,1.54.9q0,10.76,0,21.53c0,3.95,0,7.89,0,11.84-1.05,0-2,.56-3.08.49-1.12-3.83-2.25-7.66-3.36-11.49q-3.26-11.27-6.51-22.55C186,109.28,185.07,105.89,184.12,102.51Z" transform="translate(0.12 0.12)"/><path class="a" d="M187.73,168c3.54,0.61,7,1.7,10.45,2.49l1.75,0.39q0,14,0,28.06a0.81,0.81,0,0,1-1,1c-2.08,0-4.16,0-6.23,0a65.38,65.38,0,0,0-1-7.34c-1.13-7.53-2.34-15.05-3.53-22.57C188.1,169.35,187.89,168.7,187.73,168Z" transform="translate(0.12 0.12)"/><path class="e" d="M67.24,168.76a2.31,2.31,0,0,1,.08,1.85q-2.92,14.66-5.84,29.31H45.65c2.61-3.82,5.2-7.65,7.83-11.45q4.82-7,9.69-13.95C64.51,172.6,65.88,170.68,67.24,168.76Z" transform="translate(0.12 0.12)"/><path class="a" d="M199.93,61.49l-9.92-3-2-.64h0c0.09-.31.16-0.62,0.27-0.92q4.3-11.18,8.6-22.36c0.23-.61.71-1.21,0.24-1.92,0.95-1.28,1.9-.14,2.85,0Q199.93,47.09,199.93,61.49Z" transform="translate(0.12 0.12)"/><path class="d" d="M196.85,146.7c1.06,0.07,2-.49,3.08-0.49q0,7,0,13.92a33.24,33.24,0,0,0-4.69,2.86c-1.88,1.14-3.67,2.42-5.5,3.63-0.32.21-.68,0.59-1.06,0.25s0-.67.13-1q3.83-9,7.67-18c0.14-.33.26-0.67,0.38-1V146.7Z" transform="translate(0.12 0.12)"/><path class="a" d="M154.85,199.93q-0.86-5.67-1.71-11.34c0-.32-0.36-0.75.12-0.95a0.87,0.87,0,0,1,.89.48L165.07,199a1.71,1.71,0,0,1,.57.89H154.85Z" transform="translate(0.12 0.12)"/><path class="a" d="M147.4,155.33c-0.2.55-.61,0.36-1,0.3l-17.84-2.84-26.23-4.17c-1.38-.22-2.75-0.48-4.13-0.72l-0.72-.24a1.18,1.18,0,0,0,.48-1c0.24-5.5.5-11,.71-16.49,0.12-3.19.05-6.39,0.29-9.57,0.16-2.12.08-4.23,0.22-6.34,0.36-5.33.46-10.67,0.69-16h0a52.7,52.7,0,0,1,4.28,5q5,6,9.93,12l9.77,11.8,11.07,13.37,10.82,13.1C146.28,154.09,146.85,154.7,147.4,155.33Z" transform="translate(0.12 0.12)"/><path class="d" d="M157,67.73l0.24,0.48L143.3,75.42q-10.38,5.37-20.76,10.74-10.18,5.24-20.38,10.44c-0.53.27-1,.6-1.56,0.89-0.75-.39-0.43-1-0.32-1.58q3.68-18.48,7.37-37c0.07-.35.1-0.71,0.15-1.06h0L128.36,62Z" transform="translate(0.12 0.12)"/><path class="b" d="M99.41,98.45a1.06,1.06,0,0,0-1.22.13l-33,14.13-7,3c0.2-1.83,1.18-3.38,1.84-5q7.6-18.82,15.31-37.6C76.1,71.06,77,69,77.8,67a27.28,27.28,0,0,1,3.35,4.48q9,12.66,18,25.37a3.68,3.68,0,0,1,.75,1.35h0Z" transform="translate(0.12 0.12)"/><path class="e" d="M100.61,97.49c0.52-.3,1-0.62,1.56-0.89q10.19-5.22,20.38-10.44,10.39-5.35,20.76-10.74l13.95-7.21h0a2.78,2.78,0,0,1-.75,1.6L141,92.29a2.83,2.83,0,0,0-.76,1.6H140l-11,1.13-10.69,1-10.8,1.1c-1.86.19-3.72,0.39-5.58,0.56A1.74,1.74,0,0,1,100.61,97.49Z" transform="translate(0.12 0.12)"/><path class="e" d="M99.41,98.45l0.47-.24c-0.24,5.34-.33,10.68-0.69,16-0.14,2.11-.06,4.22-0.22,6.34-0.24,3.18-.17,6.38-0.29,9.57-0.21,5.5-.48,11-0.71,16.49a1.18,1.18,0,0,1-.48,1c-0.5-.13-1-0.23-1.5-0.39L70.3,138.71c-0.53-.18-1.08-0.29-1.61-0.43l-0.48-.72,19.58-24.5Q93.6,105.76,99.41,98.45Z" transform="translate(0.12 0.12)"/><path class="c" d="M68.69,138.28c0.54,0.14,1.09.25,1.61,0.43L96,147.26c0.49,0.16,1,.26,1.5.39l0.72,0.24a3.62,3.62,0,0,0,.6,1.92l17.7,35.41a4.08,4.08,0,0,1,.66,1.78c-0.33-.29-0.68-0.56-1-0.87L69.65,139.61A2.54,2.54,0,0,1,68.69,138.28Z" transform="translate(0.12 0.12)"/><path class="a" d="M157,67.73L128.36,62,107.8,57.89c-0.14-.54-0.25-1.09-0.42-1.62Q103,43.12,98.63,30c-0.18-.53-0.28-1.08-0.42-1.62a3.93,3.93,0,0,1,1.35.75q28,18.64,55.95,37.3A3,3,0,0,1,157,67.73Z" transform="translate(0.12 0.12)"/><path class="a" d="M140.2,93.88a2.83,2.83,0,0,1,.76-1.6l15.53-22.48a2.78,2.78,0,0,0,.75-1.6L158,68l5.47,7.13q9.32,12.18,18.62,24.36a4.37,4.37,0,0,1,1.35,2.35l-25.56-4.65-16.84-3A8.19,8.19,0,0,1,140.2,93.88Z" transform="translate(0.12 0.12)"/><path class="b" d="M183.4,101.81a4.37,4.37,0,0,0-1.35-2.35q-9.29-12.2-18.62-24.36L158,68V67.73l0.72-.48a1.45,1.45,0,0,0,1.47-.13L188,57.89h0c-0.24,2.34-.49,4.67-0.72,7Q186.67,71,186.12,77c-0.27,3-.53,6-0.8,9.05s-0.58,6.27-.88,9.4q-0.28,3-.56,6.07Z" transform="translate(0.12 0.12)"/><path class="e" d="M188,57.89l-27.81,9.23a1.45,1.45,0,0,1-1.47.13L171.23,56c2.64-2.37,5.26-4.77,7.9-7.14l11.3-10.14q3.34-3,6.65-6c0.46,0.71,0,1.31-.24,1.92q-4.29,11.19-8.6,22.36C188.12,57.27,188.05,57.58,188,57.89Z" transform="translate(0.12 0.12)"/><path class="e" d="M196.85,146.7v0.23c-3.65.66-7.31,1.3-11,2l-36.38,6.68a4.74,4.74,0,0,0-.67.23l-0.72-.24,34.54-51.79c0.36-.55.6-1.27,1.46-1.26,1,3.38,1.89,6.76,2.86,10.14q3.24,11.28,6.51,22.55C194.6,139,195.73,142.86,196.85,146.7Z" transform="translate(0.12 0.12)"/><path class="a" d="M148.12,155.57l0.72,0.24a1.25,1.25,0,0,0,1,.69l33,9.91,3.33,1a1.9,1.9,0,0,1,1.23.67c-2.23,1.24-4.46,2.49-6.7,3.71l-21.36,11.63c-1.86,1-3.73,2-5.58,3-0.78.43-1,.19-1.18-0.63-1-6.38-2.07-12.76-3.1-19.14-0.5-3.07-1-6.15-1.48-9.22a3.14,3.14,0,0,0-.44-1.36Z" transform="translate(0.12 0.12)"/></svg>
