<?xml version="1.0" encoding="utf-8"?>
<!-- Generator: Adobe Illustrator 19.2.0, SVG Export Plug-In . SVG Version: 6.00 Build 0)  -->
<svg version="1.1" baseProfile="tiny" id="Layer_1" xmlns="http://www.w3.org/2000/svg" xmlns:xlink="http://www.w3.org/1999/xlink"
	 x="0px" y="0px" viewBox="0 0 500 500" xml:space="preserve">
<g>
	<path fill="#808080" d="M227.6-402.2c0.3,1,0.6,2,0.9,3c0,0.4,0.1,0.7,0.5,0.8c1.8,2.6,4.3,4.5,6.6,6.6c5,4.6,5.3,9.3,0.6,14.4
		c-1.3,1.3-0.6,2.7-1.1,3.9c-2.1,4.8-1,9.1,1.5,13.5c1,1.8,0.9,4,0.5,6.2c-0.3,1.7-0.9,3.4-0.1,5.5c9.4-9.4,17.9-19.3,26.4-29.7
		c4.6,4.4,7.9,9.5,12.4,14.2c4.3-4.7,8.6-9.1,12.6-13.7c4.2-4.9,8.2-9.9,12.2-14.9c3.1-3.9,6.2-7.7,10.5-10.3
		c1.8-1.1,2.7-3.1,4.4-4.5c0.5-0.2,0.8-0.5,0.9-1c0.1-0.3,0.2-0.5,0.5-0.7c0.2-0.2,0.4-0.4,0.6-0.7l0.2-0.2c0.2-0.3,0.5-0.5,0.7-0.8
		c1.1-1.7,2.3-3.3,3.8-4.6c0.2-0.2,0.5-0.5,0.7-0.7l0.1-0.1c0.4-0.1,0.7-0.4,0.8-0.9c2.3-3.2,4.8-6.1,7.4-8.9
		c0.4,0.2,0.7,0.3,0.9,0.5c6.6,7.9,13.8,15.3,20.8,22.8c13.1,14.1,25.2,29.1,37.7,43.8c2,2.4,5.1,3.6,6.6,6.2c0.9,0,1.1-0.4,1.2-0.8
		c0.6-3-1-5.9,0.4-9.2c1.1-2.7,0.4-6.2,0.5-9.3c0.1-3.3,0.4-6.6,0.2-9.9c-0.2-3.1,0-6,0.4-9.1c0.8-6.7,0.6-13.4,0.8-20.1
		c0-1.4-0.3-2.6-1-3.8c-0.8-1.2-0.2-1.9,1.1-2.2c0.8,0,1.6,0.1,2.1-0.5c0.5-0.3,1-0.2,1.5,0.1c1.5,1,3.1,0.4,4.7,0.5
		c1.3,0.3,1.9,1,1.1,2.2c-1,1.5-1,3-1,4.7c0.2,6,0.4,11.9,0.6,17.9c0.1,1.6-0.5,3.3,1.1,4.6c0.3,0.2,0.5,0.9,0.4,1.2
		c-2.3,6.4-0.3,13-0.5,19.5c-0.1,2.4-0.9,5.1,1.4,7.1c0.5,0.4,0.1,1.1-0.2,1.6c-1.4,3-0.3,6-0.5,9.1c1.8-0.2,2.4-1.4,3.3-2.1
		c0.7-0.6,1.3-1.8,1.9-1.8c4,0,3.1-2.9,3.1-5.2c0.2-5,0.3-10,0.4-15c2.3,0.3,2.8,1.9,3,3.8c0.1,1.2,0,2.4,0,3.6
		c0,50.6,0,101.1,0,151.7c-417,0-834.1,0-1251.1,0c0-31.4,0-62.9,0-94.3c2.7,0,5.4,0,8.1,0c4.6,0,4.5,0.4,4.5-4.3c0-3.3,0-6.6,0-9.9
		c0-1.3-0.4-2.8,1.6-3.1c0.6-0.1,1-0.8,0.9-1.4c-0.7-2.8,3.4-3,3-5.8c-0.1-0.8,1.5-0.7,2.3-0.6c2,0.1,2.6-0.9,2.5-2.7
		c-0.1-2.1,0.4-4,1.1-6c2-5.9,1.2-12.1,1.3-18.1c0-1.2-0.4-2.6-1.4-3.7c-0.9-1.1-1.5-2.4-2.4-4c2.7-0.8,5.1-0.4,7.4-0.5
		c3.5-0.1,5-1.3,5-4.7c0-3,0.4-5.9,0.2-8.9c-0.7-7.9,0.7-15.8,1.4-23.6c0.1-0.9,0.4-1.7,0.1-2.6c-4.5-1-5-1.5-5.9-6.4
		c-0.6-3.3-1.8-6.4-1.8-9.8c0-1.5,0.4-2.5,1.4-3.5c1.1-1,2.1-1.7,3.4-0.3c0.9,0.9,1.8,0.5,2.1-0.5c1.2-3.7,3.5-6.3,6.3-9
		c1.8-1.7,1.1-4.8,0.8-7.3c-0.2-1.8,0.2-3.6,1.8-4c1.4-0.3,2.2-2.1,2.4-1.9c1.3,1.3,2.1,0.3,3-0.4c1.1-0.9,0.5,0.5,0.8,0.6
		c2.3,1.4,2.7,3.3,1.3,5.6c-0.3,0.5-0.5,1.1-0.6,1.7c0,0.4,0.3,0.9,0.6,1.1c0.5,0.4,0.9-0.1,1-0.5c1.6-4.9,3.9-9.6,5-14.6
		c0.4-1.7,0.7-3.5,1.4-5.2c0.8-2,2-3.8-0.2-5.6c-0.5-0.4-0.4-1.2,0-1.7c1.6-2.2,0.7-4.9,1.8-7.3c1.9,0.2,3.3,0.8,3,3.2
		c-0.2,1.4-0.9,3,0.9,4c0.2,0.1,0.4,1,0.2,1.2c-2.1,3.2-1.2,6.8-1.6,10.3c-0.1,0.6,0,1.4-0.4,1.7c-2.3,2.1-1.8,5.1-2.6,7.7
		c-1.1,3.3-1.4,6.3,0.5,9.4c0.7,1.2,0.8,2.7-1,3.3c-1.3,0.4-1.1,1.6-1.4,2.6c-0.5,2-0.5,4.2-1.7,6c-0.9,1.4-0.2,2.6,0.4,3.8
		c1.5,3,3.1,5.9,0.8,9.2c-0.2,0.2-0.2,0.6-0.1,0.9c1.5,7.2-1.8,14.1-1.7,21.2c0,1.4-0.1,2.8-1.1,3.8c-1.8,1.6-1.8,3.7-1.6,5.8
		c0.4,3.7,0.7,7.5,2.1,11c1.4,3.5,1.8,3.8,5.6,3.9c2.1,0.1,4.2-0.4,6.1,0.3c0.3,0.7,0.2,1.2-0.2,1.7c-3.1,3.5-3.2,7.7-3,12.1
		c0.2,4.9-0.2,9.8,2.4,14.3c0.3,0.6,0.2,1.5,0.2,2.2c-0.2,2.6-0.2,4.9,3.5,4.4c0.7-0.1,1,0.5,1.1,1.1c0.2,0.9-0.3,2.3,1.3,2.4
		c1.5,0.1,3,0.2,4.5-0.1c1.3-0.3,0.9-1.7,0.9-2.7c0-6.6,0-13.2,0-19.7c0-9.9,0-19.7,0.1-29.6c0-1.9,0.5-3.8,0.9-6.3
		c2.7,3.3,1.1,6.9,2.3,10.3c1.8-1.4,2.1-4.1,4.7-3.9c2.5,0.1,2.8,2.8,4.8,4.1c0.9-3.5-0.5-7.1,1.6-10.3c1.5,2.3,1.2,4.7,1.3,7
		c0.1,3.4,0.1,6.9,0.1,10.3c0,1.9,0.8,3,2.7,2.2c1.6-0.6,3.9,1.5,5-1.4c0.3-0.7,1.3-0.4,1.9,0.3c0.5,0.6,1.1,0.9,1.9,1
		c4.6,0.6,5.2,0,5.4-4.8c0-1.5,0.1-3,0.1-4.5c0.1-4.1-0.2-8.2,1.5-11.1c1,2.8,1.2,6.7,1.4,10.8c4.9-4.5,4.9-4.5,9.7,0.1
		c0.6-4.1,0.2-8,1.6-11.1c2.3,5.5,1.2,11.7,1.4,17.9c0.1,2.4,0,4.8,0,7.2c0,1-0.1,2.2,1.4,2.3c1.2,0,1.3-0.8,1.5-1.8
		c0.1-0.6,0.5-1.1,0.8-1.8c1.3,0.9,0.3,2.7,1.6,3.3c0.4,0,0.9,0,1-0.6c0.1-1.3,0.1-2.7,0.1-4c0-15.1-0.2-30.2,0-45.3
		c0.1-3.6-0.2-7.5,2.1-10.8c1.7,1.3,2.3,3,2.1,5.1c-0.2,2.4,0.8,4.7,0.6,7.1c-0.2,2.4,0.5,2.7,3,1.8c0.4-0.2,0.8-0.4,1.1-0.7
		c-0.3,1.5-0.9,3,1.7,2.6c2.3-0.3,4.7-0.5,7-0.2c3.7,0.4,4.2,0,3-3.6c-0.2-0.7-0.5-1.4-0.7-2.1c0.1-1.9,0.8-3.8,0.6-5.8
		c-0.2-1.6,0.5-2.9,2.1-3.9c2.3,3.5,2.1,7.5,2.1,11.1c0.2,15.3,0,30.5,0,45.8c0,0.7,0,1.5,0,2.2c0,0.6,0,1.3,0.8,1.4
		c1.1,0.2,1-0.8,1.1-1.5c0.1-0.4,0.2-0.9,0.4-1.5c1.6,1,1.3,3.6,4.2,3.6c2.8,0,2.5-2.4,3.7-3.6c1.7,4.3,2.9,4.6,6.8,1.6
		c0.9-0.7,1.4-0.3,1.6,0.5c0.3,1.2,1.1,1.1,2,1.3c2.6,0.5,4.1-0.6,4.2-3.6c1.7,1.3,0.9,3.8,3.7,3.8c2.8,0,3.3-1.7,4.3-4.5
		c0.6,2.9,0.9,4.5,3.5,4.5c3,0,3.2-1.9,3.7-3.1c0-0.6,0-0.2,0-0.2c1.3,0.6,0.5,3.2,2.3,2.8c1.7-0.3,0.8-2.2,1-3.5
		c1.1-7.3,2.2-14.6,3.2-21.9c0.1-0.7,0-1.7,1-1.7c1.3-0.1,1.1,1.1,1.2,1.9c0.8,3.8,1.2,7.6,1.7,11.4c0.5,4.2,1.5,8.4,1.6,12.7
		c0,0.7,0.4,1.2,1.1,1.1c0.3,0,0.9-0.5,0.9-0.8c0.2-0.9,0.3-1.8,1.2-2.7c0.5,2.4,1.2,4.1,4.3,3.9c2.9-0.2,1.8-2.6,2.9-3.8
		c0.2,0.2,0.4,0.4,0.6,0.5c1,0.8-0.1,3.2,2.1,2.8c2-0.3,1.3-2.1,1.3-3.3c0.1-4.8,0.1-9.6,0.1-14.4c0-3.4,0.1-6.8,1.5-9.3
		c1.1,2.9,1.3,6.6,1.3,10.3c0.4,0.1,0.8,0.2,0.9,0.1c4.2-4.3,4.9-4.3,8.4,1c1.5-4.1,0.3-8.4,2.1-11.3c2.4,5.1,1.1,11.4,1.5,17.5
		c0.1,1.9,0.7,3.1,2.6,2.6c1.4-0.3,3.1,0.9,4.3-0.4c1.5-1.7,2-0.8,3.3,0.4c1.3,1.3,3.8,0.3,5.6,0.2c1.5,0,1-1.9,1-3
		c0.1-4.5,0.3-9,0.4-13.4c0-1.1,0.2-2,1.1-2.9c2.1,3.1,0.8,6.7,1.5,10.1c5.2-5.7,5.6-4.9,9.5-0.5c1.7-1.3,0-3.2,0.7-4.6
		c0.7-1.5-0.4-3.3,1.3-4.9c1.5,2,1.1,4.3,1.2,6.3c0.2,5.4,0.1,10.7,0.1,16.1c0,0.4,0,0.9,0,1.3c0,1.1,0.1,2.1,1.6,2.1
		c1.2,0,1.3-0.9,1.4-1.8c0-0.4,0.2-0.8,0.3-1.3c0.7,0,1.2,0.3,1.3,0.9c0.1,3.4,2.6,2.1,4.3,2.2c2,0.1,1.9-1.4,1.9-2.8
		c0-6.7,0.8-13.6-0.2-20.2c-1.1-7.5,0.2-14.8-0.7-22.3c-0.2-1.5-0.8-4.4,2-5.4c-0.9-3.8,2.4-6.2,3.3-9.3l0.2-0.1l-0.1-0.2
		c0.3-1.4,0.5-2.8,0.8-4.3c3.3,0.4,6.6,0.4,10,0c0.6,3.2,1.1,6.5,3.5,9c0.2,0.2,0.4,0.5,0.4,0.8c0,4.2,3.2,7.6,2.3,12.1
		c-0.7,3.3-0.5,6.8,0.1,10.3c0.1,0.7,0,1.5,0,2.2c-1.7,19.5-0.4,39.1-0.8,58.7c0,0.7,0,1.5,0.1,2.2c0.1,1,0.8,1.1,1.6,1.1
		c0.9,0,1.4-0.5,1.4-1.3c0-1.3,0-2.7,0.1-4c0-1.4-0.2-2.8,1.9-2.7c1.6,0.1,1.5-1.3,1.4-2.3c-0.3-2.6,0.6-5,1-7.4
		c0.1-0.8,0.3-1.6,1.3-1.1c1.7,0.8,2.5-0.1,3.1-1.4c1.5-3.7,4.9-6.5,4.5-11l2.5-3.7c1.2-0.5,1.1-1.7,1.5-2.6
		c2-5.3,3.3-10.8,4.8-16.3c0.2-0.6,0.5-1.4,0.3-1.7c-1.9-2.7,0.3-4.6,1.2-6.8c4.8-1.4,4.7-1.4,4.9-5.7c0.2-2.8-0.5-5.5-0.2-8.4
		c0.4-4.5,0.2-9.1,0.2-13.6c0-1.1-0.1-2.2-1.7-1.9c-0.2-4.8,0.2-9.5,0.4-14.3c0.3-6.5,1.5-13-0.3-19.6c-0.4-1.6,0.3-3.7,1.5-5.4
		c2.2-3.3,2-7.2,2.6-10.8c-0.4,3.6-0.3,7.3,1.6,10.7c1.3,2.4,2.1,4.6,1.2,7.5c-0.9,2.8-0.6,5.9-0.4,8.9c1,14.8,1.4,29.6,3.3,44.3
		c0.5,3.9-0.2,8.2,2.9,11.5c0.2,0.2,0.3,1,0.2,1.2c-1.8,2.7-0.3,5.2,0.4,7.7c1.1,4.2,2.4,8.3,3.7,12.4c0.4,1.4,0.6,2.8,2.5,3.3
		c1.4,0.4,1.8,2.5,1.7,3.7c-0.3,2.5,0.9,4.4,2.1,6.2c4.4,6.6,6.6,13.5,5.7,21.5c-0.4,3.3-0.1,3.5,3.3,4.3c1.7,0.4,2.3,1.7,3.4,2.9
		c1-1.4,1-3.1,0.8-4.3c-0.9-6.3,1.6-12.6,0.4-18.9c-0.3-1.6-0.1-3.2,0.7-5c1.2-2.7,0.5-5.9,0.3-8.9c-0.1-1.7-0.4-3.2,0.3-5.1
		c0.9-2.2,0.9-5.1,0.3-7.5c-0.7-2.9,0.4-5.8-0.9-8.7c-0.8-1.7,0.5-3,2-4.1c3.9-2.6,8.4-3.8,12.8-5.2c7.3-2.4,15.1-3,22.6-4.5
		c5.3-1,10.6-1.6,15.9-2.8c3.6-0.8,7.1-1.6,10.8,0.4c2.2,1.2,5.3,0.8,8,0.6c1-0.1,1.8-0.4,2.3-1.2c1.1-2,3.1-2.2,5-2.4
		c10.1-0.7,20.3-1.5,30.4-1.2c4.3,0.1,4.3,0.2,5.6,4.2c0.3,0.9,0.9,1.6,1.6,2c2.4,1.3,2.9,3.6,3.4,6c1.9,9.2,3.8,18.4,5.6,27.7
		c0.5,2.4,1.4,3.8,4.1,3.6c1-0.1,2.1,0.3,3.1,0.3c2,0,3.1,0.6,3.8,2.8c0.9,3.1,2.9,3.4,5.1,1c1.9-2.1,4.2-3,7.1-2.9
		c6.5,0.1,12.8,0.7,19.2,1.9c2.1,0.4,2.7,1.3,2.6,3.3c-0.1,2.4-0.1,4.8,0.2,7.2c0.5,3.6,0.5,7.1,2.6,10.6c1.6,2.6,2.1,6.1,3.6,9.2
		c0.3-2.4,0.7-4.6,3.1-5.9c1-0.6,0.8-2.2,0.9-3.3c1.3-18.2,3-36.3,3.9-54.5c0.8-14.6,2.2-29.2,3.2-43.8c0.1-1.8,0.4-2.6,2.3-3
		c3.8-0.7,3.8-0.8,4.1-4.8c0.2-3.9,0.5-7.8,0.5-11.6c0-1.9,0.5-2.8,2.4-2.8c8.1-0.2,16.1,0.2,24.1,1.7c1.7,0.3,2.2,1.1,2,2.8
		c-0.5,4.3-0.7,8.6-1.1,12.9c-0.2,2.4,0,4.1,3,4.3c2,0.1,2.5,1.3,2.4,3.4c-1.4,18.6-2.7,37.3-4.1,55.9c-0.7,9.4-1.5,18.8-1.9,28.2
		c-0.2,4.9,0,9.8-0.6,14.7c-0.2,1.7,0.5,2.5,2.3,2.3c0.9-0.1,1.8,0,2.7,0c1.5,0,2.1-0.8,2.1-2.3c0-2.2,0-4.5,0-6.7
		c0-1.1,0-2.1,1.5-2.2c2.5-0.2,2.9-2,2.1-3.9c-1-2.2,1.6-4.7-0.8-6.8c-0.6-0.6,0.3-0.9,0.8-1c1.8-0.2,2-1.5,2.1-2.9
		c0-1.2,0.3-2.5,0-3.6c-1.1-3.7,1.6-6.9,1.5-10.5c0-0.4,0.6-0.9,1.1-1.7c1.4,1.7,1,3.5,1.1,5.2c1.3,0.1,0.7-1.3,1.3-1.3
		c2.4-0.1,3.5-1.5,4.5-3.6c1.2-2.7,2.9-2.6,4.4,0c0.5,0.9,0.8,1.9,1.6,2.6c1.6,1.3,3,1.1,3.7-1c0.4-1.1,1.2-1.4,1.9-1.4
		c0.4,0,0.9,1.1,1.2,1.7c0.5,1.1-0.4,2-0.4,3c0,0.7,0.2,1.2,0.8,1.4c0.8,0.3,1.4,0,1.9-0.8c0.7-1.3,0.7-2.7,0.5-3.9
		c-0.6-4,1.5-7.2,3.5-10c1.6-2.2,3.3-4,3.6-6.8c0.1-0.9,0.9-1.7,1.4-2.7c0.5,1.6,1.8,2.9,1.6,4.8c-0.2,1.3,0.7,2.3,1.7,3
		c1.8,1.3,2.5,3.2,3.4,5.1c1.2,2.5,2.3,5,1.7,7.9c-0.2,0.9,0,1.8,1,2.7c0.6-6.1,1.7-11.9,1.4-17.8c-0.1-2.1-1.2-4.6,2.1-5.4
		c0.4-0.1,0.6-1.3,0.7-2c0.7-6.2,2.4-12.1,5.4-17.7c1.8-3.3,4.4-5.8,7.4-7.6c3.5-2.2,5.1-4.7,5.2-8.7c0.1-2.2,0.3-4.7,2.3-6.5
		c1.3-1.2,1.3-3,2-4.4c0.5-0.3,1-0.5,1.5-0.8c1.1,2,1.5,4.3,3.1,6.3c1.3,1.6,1.7,4.3,1.5,6.8c-0.3,2.9,1.3,5.2,3.5,6.5
		c6.7,3.7,10.5,9.6,12.4,16.6c0.9,3.2,2.6,6.4,2,9.9c-0.1,0.5,0.2,1.5,0.5,1.6c3.3,1.1,2.4,3.7,2.2,5.9c-0.5,5.8,1,11.5,1.2,17.6
		c2-1.3,1.4-3.1,1.3-4.5c-0.3-4,1.7-7.1,3.7-10.1c1.3-1.9,3.3-3.2,3.2-6c0-0.9,0.9-1.8,1.5-2.9c0.9,1.5,1.8,2.7,1.7,4.5
		c-0.1,1.1,0.4,2.1,1.3,2.7c2.3,1.5,2.9,4,4.1,6.2c1.3,2.2,1.4,4.3,1.4,6.6c0,1.3-0.3,2.7,1.1,3.8c2.9-1-0.4-4.5,2.6-5.5
		c2.2,0.8,0.2,3.3,1.3,4.9c1.5-0.4,1.4-2.6,3.4-2.7c1.6-0.1,2-2.3,2.8-3.7c0.9-1.7,2.9-1.9,3.5-0.4c1.1,2.6,2.7,4.3,5.2,5.4
		c0.3,0.1,0.4,0.7,0.5,1.1c1.9-1.3-0.6-3.6,1.5-5c0.9,0.5,1.1,1.5,1.3,2.4c0.1,0.7-0.3,1.8,0.1,2.2c2.9,2.8,1,6.2,1.3,9.3
		c0.2,1.8-0.2,3.7,2.4,4.1c0.8,0.1,0.7,0.6,0.5,1.3c-0.9,3.5-1.1,7.1-0.7,10.7c0,0.1,0.2,0.1,0.7,0.3c1.6-4,4.7-7.2,4.5-12.3
		c-0.3-7.7,0.8-15.5,0.9-23.3c0-3.5-1-7-0.7-10.5c0.1-1.8-0.6-3.9,1.3-5.4c0.7-0.5,0.4-1.3,0-2c-1.7-3.2-1.3-6.3,0.9-9.2
		c0.4-0.6,1-1.2,1.1-1.9c0.4-2.4,1-0.4,1.5-0.2c1.7,0.6,3.5,0.3,5.3,0.1c0.9-0.1,1-1,1.1-1.7c0.2-1.6,0.5-3.3-0.2-4.9
		c-1-2.3-1-4.7-0.8-7.1c0.2-2-0.9-4.8,2.8-5c0.5,0,0.9-1.8,1.3-2.7l0.1,0c2.2,4,1.8,8.6,3.2,12.8c0.1,0.3-0.3,1.1,0.5,0.7
		c0.4-0.2,0.2-1.1,1.2-1.4c0.9,3.4,2.7,6.5,2.6,10.2c-0.1,2.9,0.2,3,3,3.1c4.6,0.1,9.2-0.7,13.7,0.4c1.2,0.3,1.9-0.8,3.1-0.8
		c-0.5,2.9,0.9,5.5,1.1,8.4c0.2,3.4,4.6,5.6,8,4.4c1.7-0.6,2.8-2,4-3.1c1.8,0.7,2.3,3.2,4.7,2.6c1.4-2.6-0.7-5.6,0.8-8.2
		c0.4-0.7,1.2-1.3,1.8-1.9c1.7,1.3,2.9,2.9,2.3,5c-1,3.5,0.9,6.2,2.2,9.1c0.6,1.3,1.7,0.9,2.7,0.9c1.2,0,1.3-1,1.3-1.9
		c-0.2-4.3,0-8.6-0.3-12.9c-0.2-3.1,1.2-6.5,1.7-9.9c0.1-1,1.5-1.8,2.4-2.8c2.4,2,4.3,4,2.7,7.4c-0.2,0.4-0.1,1.1,0.1,1.3
		c2.8,2.2,0.9,4.8,0.9,7.3c-0.1,4.5,0.1,9,0.2,13.5c0,1.3-0.3,3,1.4,3.4c1.9,0.4,4,0.9,5.8-0.7c1.9-1.6,2.1-3.7,2.2-5.8
		c0.9-0.7,1.6-0.5,2.4-0.5c4.4-0.1,4.4-0.1,5,4.2c0.2,1.1,0.2,2.2,1.7,2.1c1.9-0.1,1.5-1.6,1.4-2.7c-0.1-3.1-0.2-3.1,2.1-5.6
		c2.3,1.4,2.6,3.3,2.4,5.9c-0.3,3.2,0.2,6.6,0.4,9.8c0.3,7.3,0.6,14.7,1,22c0.1,1.9,0.7,3.2,2.4,4.7c2.2,2.1,4.9,4,6.8,6.7
		c-0.1-5.5,2.1-11-0.9-16.4c-0.8-1.5-0.4-3.8-0.5-5.7c0-1.9,0-3.6-1.9-5.1c-1.9-1.5-1.3-3.1,1.1-3.8c2-0.6,4-1.4,6.1-1.4
		c1.9,0,3.5,1.7,5.7,0.6c1.6-0.8,3.5-1.3,5.4,0.2c0.6,0.5,2.3-0.3,3.4-0.6c7.6-1.8,15.1-3.6,22.7-5.4c1.2-0.3,2.2-0.4,3.4,0
		c2.3,0.7,3.5,2.8,5.4,3.5c1.6,0.6,4-1.3,5.7,0.7c0.2,0.2,0.6,0.4,0.8,0.3c4.2-2.2,8.1,0.3,11.9,1.3c3.6,1,7.1,0.9,10.3-0.2
		c4.4-1.5,7.8,1,11.6,1.6c1.8,0.3,2.3,4.1,0.6,5.2c-1.9,1.1-1.6,2.4-1.8,4.1c-0.2,2.5-0.4,5-1.2,7.4c-1.5,4.6-0.4,9.5-0.4,14.3
		c0,0.8,0.7,1.3,1.5,1.3c1,0.1,2.1,0.1,3.1,0.2c0.7,0.1,0.9,0.7,0.9,1.3c-0.1,0.7-0.2,1.6-1.1,1.6c-1.2,0-2.3-0.6-4.5,0.3
		c2.9,0,4.9,0.2,6.8-0.1c1.7-0.3,2.4-2.7,1.3-5.4c-0.5-1.3-1.3-2,0.8-2.2c0.9-0.1,1-1,0.9-1.8c-0.2-4.6,0.8-9.2-0.6-13.7
		c-0.9-3,0.7-5.9,1.9-8.5c2.5-5.3,2.5-10.4-0.1-15.7c-2.1-4.5-2.3-9,1-13.2c1.3-1.6,2.5-3.2,3.9-4.7c3.7-3.9,6.2-8.4,5.7-14
		c1.5-0.1,1.4,0.7,1.4,1.4c-0.3,5.4,2.5,9.5,6,13c1.6,1.6,3.2,3.3,4.1,5c2.2,3.9,2.7,8.4,0.2,12.6c-0.3,0.5-0.5,1-0.6,1.6
		c0,0.3,0,0.6,0,0.9c2.4-1.4,3.4-2.4,4.1-5c0.6-2.2,0.8-4.5,1.5-6.8c0.9,3.1,0.4,6.6,3,9.5c0.2-0.4,0.7-0.9,0.6-1.2
		c-0.7-3,0-5.5,2.2-7.6c-0.3-5.1,3-9.3,3.3-14.3c0.2-3.2,1.6-6.3,1-9.7c-0.2-0.9-0.2-1.5-0.9-2.1c-0.7-0.6-1.4-1.4,0.2-1.9
		c1.6-0.4,1.9-1.8,2.2-3.1c1.7-7.2,4.7-13.9,7-20.8c0.8-2.3,1.6-4.5,0.8-7c-0.3-0.8-0.1-1.9,0.2-2.6c1.1-2,0.5-3.9-0.5-5.5
		c-1.1-1.8-1.2-3.9-2-5.8c-1-2.2,0.1-4.4,1.7-6.1c1.2-1.3,2.5-2.6,3.4-4.2c0.5-0.3,1.1-0.6,1.6-0.9c0.7,1.9,1.9,3.3,3.3,4.7
		c2.2,2.2,3,4.8,1.5,7.7c-0.9,1.7-0.9,3.7-1.9,5.4c-0.7,1.3-0.8,2.8-0.2,4.3c0.5,1.2,0.5,2.5,0.1,3.9c-0.5,1.7,0.1,3.5,0.7,5.2
		c2.4,7.2,5.7,14.2,7.2,21.7c0.4,2.1,3.6,2.7,2.8,4.2c-1,1.6-1.5,3.3-1.3,4.7c0.8,5.8,0.5,11.9,4.8,16.8c1.4,1.6,1.5,3.7,1.8,5.9
		c0.5,5-0.5,10.1,0.3,15.6c3.3-2.6,3.2-5.9,4.2-9.2c0.2,1.4,0.3,2.9,0.6,4.3c0.3,1.5,0.9,2.9,1.9,4c1.1,1.2,2.2,2.4,3.8,4.2
		c0.5-3.2,0.1-4.9-1.7-6.9c-3.7-3.9-3.3-8.5,0.3-12.4c0.6-0.7,1.2-1.3,2-1.8c4.3-3,7-6.9,7.7-12.1c0.5,0,1.1-0.1,1.6-0.1
		c0.1,0.7,0.2,1.4,0.3,2.1C227.5-402.4,227.5-402.3,227.6-402.2z M-495.4-385c-0.1-0.3-0.3-0.5-0.5-0.4c0.1,0.2,0.3,0.3,0.4,0.5
		c0.1,0.4,0.3,0.6,0.5,0.4C-494.8-384.6-495-384.9-495.4-385z M-505.8-345.9c2.3,3.7,2.3,3.7,6.4,2.6c1.2-0.3,2.2-0.6,3.2,0.7
		c1.5,2.1,2.9,1.2,3.5-0.7c0.8-2.6,2.8-2.7,4.9-2.9c2.3-0.2,2.1,2.6,3.7,3c0.2-0.7,0.4-1.5,0.5-2.2c0.1-1.2,0.8-1.8,1.9-2.2
		c1.4-0.5,1.7,0.8,2.3,1.5c0.8,0.9,1.3,1.9,1.3,3.2c0,1.6,1.2,1.8,2.4,2c1.4-2.8,0.4-4.9-1.7-6.8c-3.4-3.1-7.4-4.9-12.1-5.2
		C-496.2-353.3-501.4-350.6-505.8-345.9z M103.8-331.1c1.5-2.8,2.4-5.7,5.6-6.8c0.8-0.3,1.1-1,1.1-1.8c0-4.2,0.3-8.4-0.1-12.5
		c-0.3-3.2-2.1-4.1-5.2-3.2c-2.5,0.7-2.3,2.7-2.3,4.7C103.2-344.2,103.5-337.7,103.8-331.1z M-497.3-365.4c3.8,0.9,7.2,0.3,10.6,0.5
		c2,0.1,2.6-0.9,2.1-2.8c-0.9-4.1-1.9-8.1-2.6-12.2c-0.4-2-1.6-2.3-3.2-2.2c-1.7,0-3.3-0.2-3.8,2.1
		C-495.2-375.4-496.2-370.6-497.3-365.4z M70.1-333.1c0.6-1.5,0.3-3.3,2.4-3.4c0.9-0.1,1.2-0.8,1.2-1.6c0-5.2,0.1-10.4-0.1-15.6
		c0-1.3-0.8-2.4-2.6-2.5c-3.1-0.2-4,0.3-4.2,3.5c-0.2,4.7,0,9.5-0.2,14.3C66.6-335.9,67.5-334.2,70.1-333.1z M117.1-326.4
		c0.1-1.6,0.2-3.2,0.2-4.8c0-1.1,0-2.1,0.7-3c1.4-2,3.4-5.7,3.4-6.9c-0.1-3.4-0.1-6.9-0.3-10.3c-0.2-3.3-1.2-4.7-3-4.7
		c-1.7,0-2.9,1.5-2.8,4.8C115.4-343,114.4-334.6,117.1-326.4z M50.1-344.2c0-1.9,0-2.9,0-3.9c0-1,0-2.1,0-3.1
		c-0.1-4-0.9-5.2-3.3-5.1c-2.4,0.1-3,1.2-3.1,5.4c0,3.3,0.1,6.5,0.1,9.8c0,1,0,2.1,0.1,3.1c0.2,1.3,3.2,3.5,4.4,3.1
		c1.6-0.5,1.4-2,1.4-3.3C49.8-340.6,50-342.8,50.1-344.2z M90.6-335.5c1.9-1.5,2.9-2.2,3.7-3c1.4-1.3,2.3,1.3,3.8,0.3
		c0-4.3,0.1-8.8,0-13.3c-0.1-3.3-2.1-5-5.3-4.5c-2.4,0.4-2.2,2.5-2.2,4.3C90.6-346.7,90.6-341.6,90.6-335.5z M80.9-341
		c3.4,4.1,3.4,4.1,4.8,12.5c0.3-7.9,0.4-15.7,0.3-23.6c0-3.2-1-4-4-3.9c-2.8,0-3.3,0.5-3.4,3.9c-0.1,4,0,8,0,12
		c0,0.2,0.2,0.5,0.4,0.8C79.6-339.9,80.2-340.5,80.9-341z M62-342.7c0-3.9,0.1-7.3-0.1-10.7c-0.1-2.1-1.6-2.9-3.7-2.8
		c-2.1,0.1-3.1,1.1-3.2,2.9c-0.1,3.1,0,6.2,0,9.4C57.9-345,57.9-345,62-342.7z M-368.6-368.1c1.1-0.2,3,0.8,3.2-1.7
		c0.1-1.7-1.2-3.2-2.9-3.3c-1.8-0.1-3.4,1.4-3.4,3.3C-371.5-367.7-370-368-368.6-368.1z M-500.2-356.7c6.5,1.1,16,0.8,18.5-0.4
		C-485.4-358.2-496.2-358.1-500.2-356.7z M-378.5-367.9c2.4,0,2.7-0.2,2.7-1.8c0-1.5-0.5-2.6-2.1-2.8c-1.6-0.2-3.2,1.3-3.3,2.8
		C-381.3-367.6-379.8-368-378.5-367.9z M-388.7-367.8c1.2,0,2.4,0.1,2.4-1.7c0-1.6-0.6-2.7-2.2-2.7c-1.5,0-2.4,1.1-2.5,2.6
		C-391.2-367.8-390-367.7-388.7-367.8z M-483.8-363.3c-3.5-1.6-7.3-0.9-10.9-1c-0.6,0-0.9,0.7-0.8,1.4c0.1,0.6,0.3,1.4,1,1.1
		C-491-363.3-487.3-361.9-483.8-363.3z M-397.7-371.6c-1.4,0-2.1,1-2.3,2.2c-0.1,1,0.1,2.1,1.6,2c1-0.1,2.1,0,2.3-1.5
		C-396-370.1-396.3-371.1-397.7-371.6z M-405.3-368.5c0-1.2-0.1-2.5-1.4-2.5c-1.3,0-1.9,1.2-2,2.4c-0.1,1.1,0.4,1.6,1.5,1.6
		C-405.9-366.9-405.2-367.4-405.3-368.5z M-485.9-384.4c0.1-0.4,0.1-0.7,0.2-1.1c-2.1-1.4-4.5-1.2-6.9-0.6c-0.4,0.1-0.8,0.6-0.5,1.1
		c0.2,0.4,0.6,0.9,0.9,0.9C-490.1-384.2-488-384.3-485.9-384.4z M-414.9-370.2c-1.1,0.2-1.8,1-1.9,2.1c-0.1,0.8-0.1,1.9,1.2,1.9
		c1,0.1,1.7-0.2,1.8-1.4C-413.7-368.6-413.5-369.7-414.9-370.2z M-387.9-364.3c0.1-1.4-0.8-1.8-2-1.7c-1.5,0.1-1.3,1.3-1.3,2.3
		c0,1.2,0.7,1.5,1.7,1.4C-388.1-362.3-387.8-363.1-387.9-364.3z M-365.1-364.7c0-0.8-0.1-1.5-1-1.6c-1.2-0.1-1.4,0.7-1.5,1.7
		c0,0.8,0.2,1.6,1.1,1.7C-365.3-362.8-365.1-363.7-365.1-364.7z M-397.1-365.7c-1.2,0.1-1.3,1-1.3,1.9c0,0.9,0,1.9,1.3,1.9
		c1.2,0,1.3-1,1.3-1.9C-395.8-364.7-395.8-365.6-397.1-365.7z M-380.3-366.1c-0.8,0-1.2,0.6-1.1,1.7c0,0.9-0.1,1.8,1.2,1.9
		c1.4,0.2,1.7-0.7,1.7-1.9C-378.5-365.4-378.7-366.1-380.3-366.1z M-371.1-362.8c0.6-1.4,0.6-2.4-0.1-3.6
		C-372.2-365-372.2-364-371.1-362.8z M-397-387.1c0.1-0.8,0.2-1.3,0.2-1.9c0-0.5,0.1-1.3-0.7-1.2c-0.8,0-0.8,0.7-0.7,1.3
		C-398.2-388.3-398.5-387.5-397-387.1z M-479.5-352c-1-2.3-1-2.3-3.5-1.8C-481.8-353.1-480.7-352.5-479.5-352z M-297.5-344.8
		c0.4-1.9,0.5-3,0-4.2C-298.3-347.8-298.2-346.7-297.5-344.8z M-413.8-387.2c-0.1-0.7,0-1.4-0.7-1.5c-0.5-0.1-0.8,0.4-0.7,0.8
		c0,0.7-0.3,1.6,0.9,1.6C-414.2-386.3-414-386.9-413.8-387.2z M-480.3-368.3c-0.5,0.1-0.7,0.5-0.6,1c0.1,0.6,0.4,1.1,1.1,1
		c0.4-0.1,0.5-0.7,0.4-1.1C-479.5-368-479.7-368.3-480.3-368.3z M-498.6-354.1c-1.1-0.3-2.2-0.8-3,0.5c-0.1,0.2,0,0.7,0.1,0.7
		C-500.2-352.6-499.4-353.2-498.6-354.1z M-783.9-438.1c-0.1-0.3-0.2-0.5-0.3-0.8c-0.2,0.2-0.5,0.4-0.6,0.6
		c-0.2,0.4-0.3,0.9,0.4,0.8C-784.2-437.4-784-437.9-783.9-438.1z M-408.8-362.3c0.1-0.3,0.4-0.5,0.3-0.7c-0.1-0.3,0.5-1.2-0.5-0.8
		C-409.2-363.8-409.2-362.8-408.8-362.3z M-405.2-362.3c0.6-0.7,0.4-1.3,0.1-2C-405.7-363.7-405.6-363-405.2-362.3z M-429.5-386.8
		c-0.1,0.3-0.3,0.6-0.3,0.8c0.1,0.4-0.3,1.3,0.5,1C-428.9-385.2-428.9-386.2-429.5-386.8z M-307.2-357.6c-0.7,0.8-0.5,1.6-0.1,2.7
		C-306.7-356-306.7-356.8-307.2-357.6z M58.3-337.1c-0.1-0.2-0.2-0.6-0.3-0.7c-0.2-0.1-0.6,0.1-0.7,0.2c-0.2,0.4-0.1,0.8,0.4,0.8
		C57.9-336.7,58.1-337,58.3-337.1z M-203.2-367.5c0.1-0.2,0.2-0.5,0.2-0.7c0-0.1-0.1-0.2-0.2-0.3c-0.1,0.1-0.4,0.3-0.3,0.4
		C-203.5-367.8-203.3-367.7-203.2-367.5z"/>
	<path fill="#808080" d="M423.3-214.2c0-50.6,0-101.1,0-151.7c0-1.2,0.1-2.4,0-3.6c-0.2-1.9-0.7-3.5-3-3.8
		c0.4-6.6,0.8-13.1,0.2-19.7c-0.1-1,0-1.7,0.7-2.4c0.6-0.6,1-1.3,0.6-2c-2.1-3.7,0.3-5.8,2.5-8c0.2-0.2,0.3-0.4,0.4-0.5
		c3.4,6.2,3.4,6.2,1.1,9.3c2.2,1.2,2.1,2.9,2.1,5.4c-0.1,6.1-0.1,12.1,0.7,18.3c0.6,4.4,0.1,9.2,0.1,13.8c0,2.1,0.1,4.2,1.1,6.1
		c1.1-0.5,0.9-1.5,1.2-2.3c1-2.1,3.4-4.3,4.8-4c2.1,0.6,4.5,2.4,4.7,5.4c0.1,0.9-0.2,1.8,0.7,2.7c1.7-0.7,0.2-2.9,1.7-3.8
		c1.5,1.6,0.6,3.6,0.8,5.4c0.1,1.3,0,2.7,0,4c0,0.9-0.1,2,1.2,2c1.6,0.1,1.4-1.2,1.5-2.2c0-0.6,0-1.2,0-1.8
		c-0.4-8.6,0.3-17.3-0.4-25.9c-0.3-3.8,0.6-8,0.5-12c0-0.4,0.2-1.1,0.4-1.2c2.9-0.6,1.4-2.8,1.7-4.3c0.2-1.1-0.7-2.4,0.8-3.2
		c1.3,0.3,0.9,1.3,0.9,2.1c0,1.6-0.1,3.3-0.1,4.9c0,0.8-0.2,2.1,1.1,2c1.2-0.1,1-1.3,1-2.1c0-1.3-0.1-2.7,0-4c0-0.4,0.4-0.8,1-0.7
		c0.5,0,0.8,0.5,0.7,0.9c-0.9,3.7,1.4,7.2,0.5,10.9c-0.1,0.3,0,0.6,0,0.9c0,1.2,0.4,2,1.8,2c1.3,0,2-0.5,2-1.8
		c0-1.9,0.1-3.9-0.2-5.8c-0.2-1.4-0.2-2.7,0.8-3.8c1,1,1,2.2,0.8,3.6c-0.3,1.9-0.2,3.9-0.2,5.8c0,0.9,0.1,1.9,1.3,1.9
		c1,0,1.8-0.6,1.9-1.6c0.4-2.9,0.8-6-0.3-8.8c-0.4-0.9-1.4-1.3-0.1-2.2c0.2-0.2,0.5-0.5,0.5-0.7c0.2-5.6,4.1-8.7,7.9-11.9
		c0.3-0.3,0.4-0.8,0.7-1.2c2.6,2.3,5.3,4.7,8.5,7.5c-0.7-4.2-1.4-7.7-1.3-11.3c0.1-8.2,3.6-14.8,9.8-19.9c3.9-3.2,7.3-6.9,11.6-9.7
		c3-1.9,5.1-4.7,4.5-9c-0.4-3.1,0.4-6.3,1.2-9.5c0.3,3.2,1.2,6.5,0.7,9.6c-0.5,3.2,0.8,5.1,2.5,7.2c0.6,0.7,1.2,1.4,2,1.8
		c4.4,2.4,7.5,6.2,11.3,9.3c8.6,7.2,11.6,16.4,9.4,27.3c-0.1,0.7-0.2,1.5-0.3,2.2c0,0.3,0.1,0.6,0.1,0.9c5.2-3,6.8-5,7.6-9.7
		c0.2,3.3,1.5,4.9,3.4,6.4c2.8,2.1,5.2,4.6,5.2,8.5c0,1.2,0.6,1.9,1.6,2.5c0.6,0.4,0.5,0.8-0.1,1.3c-2.8,2.9-1.3,6.4-1,9.6
		c0.1,0.9,1.1,1.4,2.1,1.1c1-0.2,0.9-1.1,0.9-1.8c0-2.1,0-4.2,0-6.3c0-0.8-0.4-1.8,0.7-2.3c1.3,0.3,1,1.3,1,2.1c0,2.2,0,4.5-0.1,6.7
		c0,1.4,0.8,1.8,2.1,1.7c1.1-0.1,1.8-0.7,1.6-1.7c-0.8-3.3,0.6-6.4,0.4-9.6c0-0.7-0.1-1.5-0.1-2.2c0-0.7,0.3-1.2,1-1.2
		c0.8,0.1,0.7,0.8,0.7,1.3c0,1.5-0.1,3-0.1,4.5c0,0.7,0.3,1.2,1,1.2c0.7,0,1.1-0.5,1.2-1.1c0.1-1.3,0-2.7,0.1-4
		c0.1-1.3-1.4-3.6,0.6-3.7c1.7,0,0.3,2.5,0.6,3.8c0.1,0.6,0,1.2,0,1.8c0,0.3,0,0.8,0.1,0.9c4.2,1.1,1.6,4.3,1.9,6.5
		c1.1,10.5,0.3,21.1,0.6,31.6c0,2.2,0.1,2.2,2.5,3.3c1.1-1.2-0.1-3.2,1.3-4.4c1.1,0.5,0.9,1.4,0.9,2c0,2.1-0.2,4.2,2.5,5
		c1.7,0.5,0.6,2.5,1.5,3.5c3-1,2.6-3.3,1.9-5.4c-0.7-1.9-0.7-3.8-0.4-5.6c0.2-1.3,0.5-2.3,2.6-1.9c4,0.7,4.5,0.2,4.6-3.7
		c0.2-5.2,0.5-10.3,0.2-15.6c-0.2-3.8,0.5-7.9,0.8-11.9c0.2-3.1,1-6.2-0.2-9.3c-0.2-0.6,0-1.1,0.5-1.6c1.1-0.9,5.8-0.8,6.8,0.1
		c0.5,0.5,0.4,1,0.3,1.6c-0.9,6.7,0,13.3,0.5,20c0.3,4.2,0,8.5,0,12.8c0,2,0.4,3.8,1.5,5.5c1.3,2,4,3.1,5.9,2.1
		c1.7-0.9,1.3-2.7,0.9-4c-0.6-1.9-1.3-3.4,0.4-5.1c0.4-0.4,0.2-1.4,0.2-2.2c0.2-5.2,0.1-10.5,0.7-15.7c0.3-2.9-1.8-5.7-0.6-8.1
		c1.3-2.8,0.8-5.5,1-8.3c0.4-4.6,0.4-9.3,0.6-13.9c0-0.9,0.3-1.9,0-2.7c-0.8-2.1-1.8-4,0.6-5.8c0.6-0.5,0.4-1.7,0-2.6
		c-1.4-3.2-0.3-5.7,2-7.9c1.2-1.1,1.8-2.4,1.7-4.8c0.6,1.7,0.6,2.9,1.2,3.6c3,2.9,4.7,6,2.8,10.1c-0.1,0.1,0,0.3,0,0.4
		c-0.3,2,3.5,3,1.2,5.8c-1.3,1.6-0.3,4.4-0.3,6.6c0.1,2.2,0.1,4.5,0.2,6.7c0.1,3,0.2,6,0.4,9c0.1,1.2-0.2,2.4,0.9,3.3
		c0.5,0.4,0.8,1,0.5,1.6c-2.1,3.2-0.9,6.7-0.9,10.1c0,4.2-0.4,8.6,0.7,12.5c0.9,3.5,0.2,6.7,0.2,10.1c0,2.4,0.1,4.8,0.3,7.2
		c0.1,1.1-0.4,2.7,1.1,3.1c1.6,0.4,3.4,0.6,4.9-0.1c1.1-0.5,0.6-1.8,0.6-2.9c-0.3-5.8,0.5-11.6-0.8-17.7c2.2,1,3.6,3,6.1,2.1
		c0.5-4.8,0.2-9.8-0.1-15.2c2.3,1.2,4.3,1.9,6.5,2c1.7,0.1,2.7-0.3,2.2-2.2c-0.3-1.2-0.6-2.3,0.2-3.7c3.9,2.7,8.4,2.3,12.8,2.5
		c2.8,0.1,2.8,0,2.7-3c0-0.9-0.2-1.8,0.4-2.7c1.6,0.3,2.7,1.6,4.4,1.9c2.7,0.4,4.1,0.2,3.4-2.7c-0.2-0.9-0.3-1.8,0.2-2.6
		c1.1-0.5,1.6,0.6,2.3,0.9c2.8,1.2,3.7,0.8,5.7-1.6c2.8-3.5,4.2-7.8,5.8-11.9c1.3-3.1,1.4-6.5,3.3-9.6c1.5-2.4,1.2-6,1.5-9.2
		c0.8-7.3,1.4-14.6,1.4-21.9c0.1,6.4,0.8,12.8,1.3,19.2c0.3,3.4,1,6.8,1.3,10.2c0.1,1.3,0.3,2.7,1.7,3.5c0.7,0.4,0.8,1.2,0.9,1.9
		c1.1,5.9,2.9,11.5,6.4,16.4c3.1,4.3,3.6,4.4,8.4,1.8c0.9,1.2,0.5,2.5,0.3,3.7c-0.2,1.6,0.6,2.1,2.1,2c2.1-0.1,3.9-1.2,5.7-2.1
		c0.2,0.5,0.4,0.8,0.4,1c0.1,5,0.1,5,5,4.7c3.5-0.2,7.2,0.1,10.2-2.3c1.2,0.6,0.8,1.6,0.8,2.4c0,3.3,0.1,3.2,3.1,3.1
		c3.6-0.1,5.2-2.4,6.4-5.1c-1.5,5.1-1.5,10.5-1.4,15.9c0.1,2.7,0.8,3.1,3.3,2.3c0.8-0.3,1.3-1.3,2.4-1.2c0.8,1,0.3,2.2,0.3,3.3
		c-0.2,3-0.4,6-0.1,9c0.1,1.3,0.8,1.8,2.1,1.8c1.3,0,1.9-0.5,1.9-1.8c0-2.1,0.2-4.2-0.1-6.3c-0.4-3.4,0.9-5.7,3.6-7.6
		c1.4-1,1.6-2.6,1.7-4.3c0.4-9.1,2.2-18,3.6-26.9c0.7-4.6,3-8.8,5.2-13c1-1.9,2.5-3.5,2.9-5.7c0.2-1,1-1.5,1.9-1.5
		c0.8,0,1.4,0.5,1.7,1.2c2.7,6.1,6.9,11.7,8.1,18.4c0.6,3.1,2.1,6.1,1.5,9.5c-0.2,1,0.1,2.1,0.2,3.1c0.6,6.3,2,7.4,8.2,6.4
		c4-0.6,8.1-0.2,12.1-0.3c3.6-0.1,3.7,0,4.7-3.6c0.2-0.6,0.3-1.2,0.4-1.8c1.2,0.7,2.5,1.4,3.6,0.6c1-0.7,0.4-1.9,0.4-2.9
		c0.1-1.3,0-2.7,0.1-4c0.1-1,0.5-2.3,1.8-2.1c3.4,0.7,2.5-1.3,2.2-3.1c-0.2-1.4-0.9-2.9,0.9-4c0.9-0.5,0.1-1.3,0-1.9
		c-0.4-2-2.1-4.3,1.1-5.7c0.2-0.1,0.3-0.9,0.1-1.2c-2.3-3.8,0.5-7,1.6-10.1c2-5.7,4.8-11.2,7.2-16.8c0.5-1.1,0.5-2.5,2.1-2.4
		c1.6,0.1,1.5,1.5,2,2.5c2,3.8,3.3,8,5.6,11.8c1.1,1.8,1.5,4.5,2.3,6.8c0.9,2.8,2.6,5.3,1,8.5c-0.6,1.2,2.7,1.6,1.9,3.8
		c-0.5,1.4-1.2,3-0.9,4.2c0.3,1.1,1.7,1.8,1.3,3.4c-0.5,2.1-1.6,4.6,2.5,4.4c1.1,0,1.5,1.7,1.5,2.9c0,1.9,0,3.9,0,5.9
		c0.8,0.1,1.5,0.4,2,0.2c1.7-0.7,2.5-0.2,2.6,1.6c0.2,2.7,1.7,3.2,4.2,3.2c4.6-0.1,9.2-0.3,13.9,0.5c4.5,0.7,5.9-0.6,6.7-5.2
		c0.2-1.3,0.3-2.7,0.4-4c0.4-8.4,1.1-10.7,5.7-19.8c-0.4-3.4,3.3-5,3.5-8.1c0.1-0.9,0.9-1.6,1.9-1.7c1-0.1,1.8,0.5,2.1,1.4
		c1.6,4.7,5,8.5,6.5,13.3c1.3,4.1,2.9,8.3,2.8,12.7c0,1.8,0,3.7,0.6,5.3c1.2,3.5,1.1,7,1.7,10.6c0.9,5.9,0.5,6.1,3.9,10.2
		c1.5,1.7,1.7,3.2,1.6,5.2c-0.1,1.8-0.1,3.6,0,5.4c0,1.1-0.7,2.6,0.9,3.1c1.6,0.5,3.3,0.4,4.9-0.1c0.3-0.1,0.7-0.7,0.6-1.1
		c-0.2-3.7,1.7-7.7-1.1-11.2c-0.9-1.1-0.4-2.6-0.4-4.3c2,1.2,3.5,1.2,3.9-1.5c0.6-4,2.4-8-0.3-12c-1.1-1.8-0.5-2.7,1.7-3.1
		c1.1-0.2,1.4-0.9,1.7-1.7c1-3.2,1.2-6.4,1.5-9.7c0.2-1.5-1-2.4-1.3-3.7c-0.3-1-1.9-3.5,1.8-2.8c1.2,0.2,2.2-1.7,2.2-2.9
		c0.1-2.9,1.1-5.9-0.8-8.7c-0.7-1-1.6-3.1,1.5-2.5c0.9,0.2,1.4-1,1.5-1.9c0.1-2.5,1.3-4.9-0.4-7.4c-0.6-0.8-1.5-2.7,1.2-2.5
		c1.3,0.1,1.7-1.1,1.8-2.1c0.1-1.9,0.7-3.8-0.5-5.7c-0.6-1-0.7-2.2-0.4-3.8c5.1,0.3,9-1.3,9-7.5c2.9,1.7,1.2,5.5,3.9,6.2
		c2.1,0.6,4.1,2.3,6.6,1.1c0.4,1.9,0.1,3.2-0.8,4.5c-1.3,2-0.3,4.1,0.1,6.1c0.2,0.7,0.7,1.5,1.6,1.3c2.3-0.4,1.9,1.2,1.3,2.1
		c-1.4,2.3-0.9,4.6-0.8,7c0,1.1,0.5,2.5,1.5,2.6c3.2,0.3,2,1.8,1.3,3.6c-1.1,2.7-0.5,5.6-0.1,8.4c0.2,0.9,0.8,2.8,2.2,2.4
		c3.2-1,2.2,1.7,1.8,2.3c-2.9,4.7-1.1,9.2,0.1,13.7c0.2,0.9,0.5,2,1.6,1.7c3.3-0.9,2.4,1.9,1.9,2.6c-2.2,2.8-1.4,6-1.4,9
		c0,1.4,0.3,2.6,1,3.8c1.2,2.2,1.1,2.2,3.8,1.4c0.3,2,0.3,3.7-1.3,5.3c-1.7,1.8-0.3,4-0.4,6c-0.2,2.3,0.4,3.8,2.8,4.9
		c1.6,0.7,3.4,2,3.1,4.5c-0.1,1,0.4,2.1,1.8,2c1.5-0.2,1.3-1.4,1.3-2.4c0-1,0-2.1,0-3.1c0.2-31.6,0.3-63.2,0.5-94.7
		c0-6.4,0.2-12.9,0.4-19.3c0-1.3-0.3-2.7,1.4-3.5c1.1-0.6,0.8-1.8,0.8-2.8c0.1-3,0-6,0.1-9c0.1-2.6-0.6-5.3,1.5-7.7
		c0.6-0.6,0.2-2,0.3-3.1c0.5-4.6-0.8-9.5,2-13.8c0.6-0.9,0.1-2.4,0.2-3.5c0.2-1.9-0.8-4.2,1.8-5.5c0.8-0.4,0.5-1.7,0.5-2.5
		c-0.2-4.3,1.4-8.1,3.5-11.7c1.3-2.3,1.6-4.5,1.8-7.1c0.3-3.5,0.3-7.1,0.9-10.6c0.3-1.9,0.4-3.8,0-5.7c0.3,4.7,0.4,9.5,0.8,14.2
		c0.1,1.2,0.4,2.2,0.1,3.4c-0.5,1.5,0.1,2.9,0.9,4.2c2.7,4.3,4.8,8.8,4.3,14.1c-0.1,0.6,0,1.5,0.3,1.7c3.3,1.3,1.9,4.2,2.2,6.5
		c0.2,1.5-0.5,3.3,1.2,4.5c0.9,0.7,0.6,1.9,0.6,3c0,2.8,0.1,5.7,0.1,8.5c0,0.9-0.3,2,0.1,2.7c3.1,5.3,1.2,11,1.8,16.5
		c0.2,1.7-0.4,3.4,1.9,4.5c1.2,0.6,0.6,2.5,0.6,3.8c0.1,14.2,0.2,28.4,0.2,42.7c0,1.2,0,2.4,0,3.6c0.1,4.4,0.1,4.5,4.4,4.4
		c6.4-0.1,12.8-0.2,19.2,0c4.7,0.1,4.7,0,4.7-4.6c0.1-14.8,0.1-29.6,0.3-44.5c0-2.3-1.1-5.1,2.1-6.6c0.4-0.2,0.3-1.7,0.4-2.5
		c0.1-3.4,0-6.9,0.1-10.3c0.1-2-0.6-4.2,1.4-5.8c0.5-0.4,0.3-1.7,0.4-2.6c0.1-2.8,0-5.7,0.1-8.5c0.1-1.7-0.2-3.3,1.3-4.9
		c1.4-1.5,0.4-4,0.6-6.1c0.1-1.4-0.4-3,1.6-3.7c1.3-0.4,1-1.8,0.9-2.7c-0.5-4.2,1.1-7.9,3-11.4c1.4-2.5,1.9-4.9,2.1-7.9
		c0.3-4.1,0.5-8.3,0.9-12.5c0.3-2.5,1-5,0.1-6.7c-1.2,1.6-0.4,4.1-0.1,6.6c0.4,4.7,0.8,9.4,1,14.2c0.1,2,0.7,3.8,1.8,5.4
		c2.2,3.6,3.5,7.4,3.6,11.7c0.1,1.4-0.4,3.1,1.7,3.7c0.3,0.1,0.6,1,0.6,1.6c-0.3,6.8,3,13.2,2.3,20.1c-0.2,1.7-0.3,3.5,1.3,5
		c0.9,0.9,0.5,2.3,0.5,3.5c0.1,3.6,0.1,7.2,0.1,10.8c0,1.6-0.3,3.1,1.5,4.3c1.3,0.9,0.6,2.8,0.6,4.3c0.3,32.8,0.6,65.5,0.8,98.3
		c0,2.4-0.1,4.8,0.1,7.2c0.4,3.2,1.1,3.7,4.3,3.7c2.5,0,5,0.2,7.6-0.4c0.8,1.6,1.5,3.1,0.9,5c-0.2,0.7,0,1.6-0.1,2.5
		c-0.3,1.5,0.6,2.6,2.3,2.6c1.7,0,1.8-1.3,1.8-2.6c0.1-4.2,0.1-8.4,0.1-12.6c0-1.3-0.1-2.7-0.2-4c-0.2-3.4-0.6-3.8-4-4
		c-0.9-0.1-1.8,0-2.7,0c-1.6,0-2.9-0.7-4-2.3c3.8-2.1,7.4-4.4,11.3-6.3c2.9-1.4,4.5-3.8,5.6-6.6c1-2.5,0.6-3.5-1.6-5.2
		c-1.7-1.3-3.3-2.5-5.6-2.4c-0.8,0-1.8-0.4-2.2-1.8c5-2.7,10-5.5,15.1-8.2c1.8-0.9,3-2.1,3.7-4.2c1.9-5.7-0.3-9.5-6.3-10.4
		c-1-0.1-2.1,0-2.6-1.3c0.5-1.1,1.6-1.2,2.5-1.5c7-2.8,13.2-6.9,19.2-11.5c3.4-2.6,4.5-6.6,6.4-10.1c0.6-1.1,0.2-2.4,0-3.5
		c-0.2-0.9-0.6-1.7-0.6-2.6c-0.2-2.1,0.9-3.2,2.8-3.2c1.9,0.1,3.1,1.3,2.6,3.3c-2.2,8.2,2.4,13.3,8.1,17.7c2.9,2.3,6.2,4.2,9.4,6.1
		c3.2,2,6.6,3.4,10,4.6c0,1.3-0.7,1.8-1.3,1.7c-3.1-0.5-4.7,2-7,3.2c-0.7,0.4-1.3,1.2-1.4,2.2c-0.4,3.7,1.7,7.7,5.1,9.5
		c4.9,2.6,9.7,5.2,14.6,7.8c-0.1,1.4-1.2,1.9-2.1,1.9c-2.3-0.1-3.8,1.4-5.6,2.3c-2.3,1.2-2.4,3-1.7,4.9c1,2.8,2.3,5.3,5.3,6.7
		c4,1.9,7.8,4.3,11.7,6.5c-1.7,2.7-4,2.3-6.2,2.4c-4,0.1-4.3,0.4-4.4,4.4c-0.1,5.4-0.2,10.8-0.1,16.2c0.1,2.8,0.6,3.2,3.2,1.9
		c2.3-1.1,4.7-0.6,7-0.8c3-0.2,3-0.1,3.2-3.2c0-0.6,0.1-1.2,0.1-2c2,1.7,4.3,1.4,6.5,1.3c0.6,0,1.2-0.2,1.4-0.9
		c0.1-0.6,0-1.2-0.6-1.5c-1.1-0.6-2-1.5-2.3-2.6c-0.4-1.8-1.6-2.2-3.1-2.8c-2.2-0.8-4.3-1.9-6.5-2.9c-0.1-1.5,1.3-2,1.6-3.1
		c0.5-1.5,1.4-1.9,3.1-1.5c2.5,0.5,5.1,0.7,7-1.6c0.9-1.1,1.9,0,2.9,0.1c1.7,0.2,2.3-1.1,1.5-2.6c-0.2-0.4-0.5-0.8-0.8-1.1
		c-1.5-1.3-3-2.4-4-4.5c-0.7-1.5-3.4-2.1-5.3-3.1c-0.8-0.4-1.8-0.5-2.3-1.3c1-4.1,3.4-5.2,7.6-4.4c3,0.6,6.2-0.1,8.2-3.2
		c0.3-0.5,0.8-0.8,1.5-0.9c3.7-0.8,6.5-2.7,7.7-6.4c0.6-1.6,2.4-0.9,3.2-2.3c0.5,3.7,0.5,3.8,3.6,4.1c7.2,0.9,14.3,0.4,21.5,0.5
		c4,0,8.1,0.2,12.1-0.5c1-0.2,2.1-0.2,2.5-1.5c0.2-0.7-0.7-2.1,0.9-1.8c0.9,0.2,2.4,0.2,2.5,1.5c0.3,2.5,2.3,3.4,3.8,4.7
		c1.1,0.9,2.1,2.1,3.9,1.8c0.5-0.1,1.3,0.3,1.5,0.7c2.5,4,6.6,3.8,10.3,3.3c2.6-0.3,3.9,0.1,4.6,2.4c0.2,0.7,1.1,1.1,0.9,2.1
		c-1.1,1.1-2.8,1.4-4.2,2.2c-1.7,1-3.7,1.5-4.3,4c-0.2,1-1.9,1.7-3,2.6c-0.8,0.7-1.5,1.7-1.2,2.7c0.4,1.1,1.5,1.4,2.6,0.8
		c1.2-0.7,1.9-0.1,2.7,0.7c1,1,2.4,1.5,3.7,1.3c3.7-0.7,6.2,0.6,7.7,4c-0.6,1.1-1.8,1.1-2.9,1.6c-2.1,0.9-4.6,1.3-6,2.8
		c-1.3,1.4-1.9,3.5-3.6,4.9c-0.7,0.6-0.5,1.8,0.8,1.9c2.2,0.1,4.5,0.6,6.4-1c0.2,0.2,0.4,0.4,0.5,0.5c0.3,4.4,0.3,4.4,4.8,4.5
		c1.5,0,3.2-0.5,4.4,0.5c3.1,2.7,6.4,1.2,9.7,0.7c2.3-0.4,3.6-2.8,6.3-3c1.4-0.1,1-2.5,0.9-4c-0.1-1.3-1.1-1.7-2.2-1.7
		c-3-0.2-6-0.3-9-0.6c-1-0.1-2.1-0.2-3.1-0.5c-1-0.3-2.1-0.7-1.9-2.1c0.2-1.2,1.1-1.1,2-1.3c1.9-0.3,3.8-0.6,5.7-1.1
		c1.4-0.4,3.3,0.1,3.8-2.2c0.2-0.9,1.5-0.8,2.4-0.7c2.1,0,2.4-1.3,2.4-3c0-1.9-0.5-3.3-2.7-3.3c-2.8-0.1-5.7-0.2-8.5-0.3
		c-1.4,0-2.7-0.2-3.9-0.8c-1-0.4-1.5-1.2-1.4-2.1c0.1-1.1,1.1-1.1,2-1.2c2.5-0.3,5-0.8,7.4-1.3c0.7-0.1,1.5-0.2,1.8-1.1
		c0.4-1.2,1.2-1.6,2.4-1.6c2.5,0.2,2.9-1.3,2.9-3.4c-0.1-2.4-1.5-2.9-3.6-2.9c-2.7,0-5.4,0-8.1-0.3c-1.3-0.1-2.6-0.5-3.9-1
		c-0.8-0.3-1.1-1.1-1-1.9c0-0.8,0.8-1.3,1.6-1.2c2.2,0.3,4-1.1,6.1-1c1.6,0,3.3,0,4.1-2c0.3-0.7,1.2-0.9,2-0.8
		c2.6,0.2,2.9-1.3,2.8-3.4c-0.1-2.4-1.5-2.9-3.6-2.9c-3.1,0-6.3,0.2-9.4-0.6c-0.9-0.2-1.8-0.3-2.5-0.7c-0.6-0.3-1.1-1.2-1.1-1.8
		c0-0.7,0.8-1.1,1.6-1.2c4.1-0.6,8.2-1.5,12.1-3c4.5-1.7,8.8-3.8,10.6-8.9c0.5-1.5,0.6-2.6,0.1-4.2c-1.2-3.5-0.9-7.2-0.5-10.9
		c0.1-1,0.9-1.1,1.6-1.1c0.8,0,1.5,0.3,1.5,1.3c0.2,3.4,1,7.1-0.2,10.2c-1.6,4.1,0.2,6.6,2.6,9c2.5,2.4,5.5,4.1,8.9,5
		c3.6,1,7.1,2.1,10.8,2.6c0.8,0.1,1.6,0.4,1.8,1.1c0.2,0.9-0.5,1.8-1.3,2.1c-1.8,0.7-3.7,1-5.7,1.1c-1.9,0.1-3.9,0.3-5.8,0.1
		c-3.5-0.3-3.9,1.3-3.7,4.5c0.1,0.8,0.4,1.4,1.3,1.6c4.3,1.5,8.3,4.1,13.1,4c1,0,2.1,0.2,2.2,1.1c0.1,1-0.5,1.9-1.7,2.3
		c-2.5,0.8-5,0.8-7.6,0.9c-1.5,0-3,0.1-4.5,0.1c-2.2,0-2.8,1.3-2.8,3.2c0,1.7,0.3,3,2.3,3.1c1.2,0,2.4,0.1,2.8,1.6
		c0.4,1.3,1.7,1.1,2.7,1.2c2.5,0.2,4.8,1.6,7.4,1.2c0.6-0.1,1.2,0.4,1.2,1c0,0.6-0.2,1.3-0.6,1.6c-1,0.9-2.4,1.2-3.7,1.3
		c-3,0.1-6,0.3-9,0.3c-1.9,0-3.1,0.6-3.2,2.8c-0.1,2.1,0.2,3.6,2.8,3.5c0.4,0,1.2-0.1,1.3,0.1c2.1,4.1,6.5,2.5,9.7,3.9
		c1,0.4,2.6-0.1,2.5,1.7c-0.1,1.5-1.5,1.8-2.7,2c-3.4,0.4-6.9,0.5-10.3,0.8c-2.9,0.2-3.9,1.6-3.2,4.4c0.2,0.8,0.6,1.7,1.3,1.6
		c2.8-0.5,3.6,2.6,5.9,3c2.2,0.3,4.4,1,6.6,1.2c1.8,0.2,2.9,0.6,2.4,2.7c-0.3,1.3,0.3,2.3,1.1,3.3c3.4,4.1,6.7,8.2,12.8,8.3
		c2.7,0.1,2.8,0.4,1.3,2.8c-0.4,0.7-0.6,1.2-0.6,2c0,3.9,0,7.8-0.1,11.7c-0.1,2,0.9,2.6,2.7,2.5c1.8-0.1,3.6,0,5.4,0.1
		c0,31.4,0,62.9,0,94.3C1026.3-214.2,724.8-214.2,423.3-214.2z M1000.8-405.6c-4.6,8.1-8.6,15.2-12.6,22.3c-0.3,0.5-0.5,1.1-0.5,1.7
		c-0.2,6.3-0.8,12.5-0.5,18.8c0,0.6,0.2,1.6,0.4,1.6c3.1,0.3,3.4,3.5,5.3,4.8c1.5,1,1.8,2.1,1.3,3.2c-1.3,2.5,0,3.9,1.7,5.1
		c2.4,1.7,3.8,5.5,7.8,3.7c0.9-1.6-1.9-3.1,0.1-4.8c2.7-2.3,5.3-4.8,8-7c2-1.6,2.6-2.9,2.6-5.1c-0.1-3.3,0-6.6,0-9.9
		c0-7.1-0.9-13.8-5.3-19.8c-2-2.6-3.2-5.7-4.7-8.6C1003.4-401.1,1002.3-402.9,1000.8-405.6z M986.7-388.4c0.4,0.1,0.7,0.2,1.1,0.3
		c3.7-6.5,7.5-12.9,11.3-20.1c-4,0-7.1,0-10.2,0c-1.5,0-2.2,0.6-2.1,2.1C986.7-400.2,986.7-394.3,986.7-388.4z M1002.5-408.3
		c3.8,7,7.4,13.4,11.5,19.4c0.6-6.1,0.7-12,0.9-17.9c0-1.2-0.7-1.5-1.7-1.5C1009.9-408.3,1006.6-408.3,1002.5-408.3z M473.3-384.2
		c-0.2-1.3,0.3-3.5-1.7-3.5c-1.9,0.1-1.5,2.2-1.4,3.6c0.1,1.3-0.9,3.5,1.5,3.4C474-380.7,472.9-382.9,473.3-384.2z M537.4-384.1
		c0.4,1.2-0.9,3.4,1.5,3.4c2.3,0,1.4-2.1,1.5-3.4c0.1-1.4,0.5-3.6-1.5-3.6C536.9-387.7,537.6-385.5,537.4-384.1z M467-388
		c-1.4,3.7-1.4,4.9,0.4,7.6C468-383.1,468.2-385.4,467-388z M534.2-388.2c-1.5,4.1-1.4,5.3,0.2,7.3
		C535.1-384.1,535.1-384.1,534.2-388.2z M476.4-380.8c1.2-4.3,1.2-4.5-0.4-6.8C475.4-385.2,475.2-383,476.4-380.8z M543.7-380.9
		c0.9-2.2,1.2-4.3-0.1-6.4C542.6-385.1,542.6-383,543.7-380.9z M425.3-396.8c0-0.6-0.4-1-1.1-1c-0.7,0-1.5,0-1.6,0.9
		c0,1,0.8,1,1.5,1C424.8-395.8,425.3-396,425.3-396.8z M562.2-381.3l-0.1,0c0,1,0,1.9,0,2.9l0.1,0
		C562.2-379.4,562.2-380.4,562.2-381.3z M607.9-418.2c1.2-1.1,1-2.1,0-3.2C607-420.3,606.9-419.3,607.9-418.2z M604-419.3
		c0-0.8-0.1-1.4-0.8-1.4c-0.2,0-0.6,0.6-0.6,1c-0.1,0.6,0.1,1.2,0.8,1.2C603.6-418.4,603.9-419,604-419.3z"/>
	<path fill="#808080" d="M-494.5-422.1c1.6-0.3,1.7,0.8,1.7,1.9c0,4.6,0.2,9.1-0.2,13.6c-0.3,2.8,0.4,5.6,0.2,8.4
		c-0.3,4.4-0.1,4.4-4.9,5.7c0.9-9.5,2.2-19,2.7-28.5C-495.1-421.4-494.7-421.7-494.5-422.1z"/>
	<path fill="#808080" d="M-531.3-436.3c1.3,1.5,1,3.3,0.7,5c-1.4-0.4-2,0.2-2.6,1.5c-1.2,2.4-2.2,2.4-3.4-0.1
		c-0.8-1.8-1.5-1.4-2.6-0.5c-0.5-2.5-0.1-4.8,1.2-7.1c1.6-3,1.9-6.4,2.5-9.8c0.6,0.1,0.8-0.4,1.1-0.7c0.7,3.4,1.5,6.8,2.2,10.1
		C-532.2-437.2-532.2-436.5-531.3-436.3z"/>
	<path fill="#808080" d="M-685.6-412.4c2.7-7.3,1.4-15,2.4-22.5c0.2-1.9-0.5-3.2-2.7-3c-1,0.1-2.1,0-3.1-0.1c-1.2-0.1-1.3-1.1-1.2-2
		c0.1-0.9,0.8-1.2,1.6-1.1c0.7,0,1.5,0.1,2.2,0.1c3.7,0.1,3.7,0.1,3.1,3.8c-0.2,1.2-0.7,2.3-0.1,3.5c1,2,0.8,4.1,0.5,6.2
		c-0.8,4.8,0,9.2,2,13.5c0.3,0.6,0.4,1.1,0.2,1.7C-682.4-412.1-684-412.1-685.6-412.4z"/>
	<path fill="#808080" d="M402.9-417.7c-0.6,0.7-1.4,0.6-2.1,0.5c0.5-1.5,0.8-3,0.1-4.4c-1.5-3.1,0.1-5.3,1.9-7.3
		c1.1-1.3,2.1-2.5,2.1-4.3c0.4,1.3,0.4,2.6,1.5,3.7c2.4,2.2,4.1,4.8,2.5,8.4c-0.6,1.3-0.2,2.6,0.2,3.9c-1.6-0.1-3.2,0.5-4.7-0.5
		c1.1-1.1,4.2,0.7,3.8-2.3c-0.3-2.6-2.9-0.6-4.3-1.6c-0.6-0.4-1.8-0.2-2.2,0.9C401.3-419.4,401.5-418.3,402.9-417.7z"/>
	<path fill="#808080" d="M-685.6-412.4c1.6,0.3,3.2,0.3,4.8,0c1.3,0.4,1.2,2,2.1,2.8c0.6,0.6,1.2,0.8,2,0.7c1-0.2,0.9-1,1-1.7
		c0.1-0.9-0.3-1.8,0.2-2.6c0.2,0.7,0.5,1.4,0.7,2.1c1.1,3.7,0.7,4-3,3.6c-2.3-0.3-4.7-0.1-7,0.2c-2.6,0.3-2-1.2-1.7-2.6
		C-686.7-411-686.9-412.1-685.6-412.4z"/>
	<path fill="#808080" d="M-539.3-430.4c1.1-0.9,1.7-1.2,2.6,0.5c1.2,2.5,2.2,2.5,3.4,0.1c0.7-1.3,1.2-1.9,2.6-1.5
		c0.8,1.5,0.6,3.1,0.7,4.7c-3.3,0.4-6.6,0.4-10,0C-540.1-427.9-539.9-429.2-539.3-430.4z"/>
	<path fill="#808080" d="M586.3-406.1c0.6,2,2.6,2.9,3.2,4.9c0.6,1.9,0,3.2-1.9,2.9c-1.5-0.2-3.4,1.1-4.4-0.7
		c-1-1.9,0.4-3.3,1.5-4.6C585.3-404.5,586.3-405,586.3-406.1z"/>
	<path fill="#808080" d="M227.3-404.7c-0.5,0-1.1,0.1-1.6,0.1c-0.5-3.5,1.4-6.8,0.7-10.5c-0.6,1.9-0.7,3.6,0.4,5.3
		C227.8-408.3,226.7-406.4,227.3-404.7z"/>
	<path fill="#808080" d="M-534.4-448.1c-0.3,0.4-0.5,0.9-1.1,0.7c0-2.8,0-5.6,0-8.4C-534-453.3-534.4-450.7-534.4-448.1z"/>
	<path fill="#808080" d="M-151.7-438.2c-0.5,0.3-1,0.5-1.5,0.8c0.2-2.6,0.4-5.1,0.6-7.7C-151.9-442.7-150.8-440.6-151.7-438.2z"/>
	<path fill="#808080" d="M187.9-474.8c-0.5,0.3-1.1,0.6-1.6,0.9c0.1-1.5,0.2-2.9,0.4-4.4c0-0.1,0.2-0.2,0.6-0.4
		C188.7-477.7,187.6-476.1,187.9-474.8z"/>
	<path fill="#808080" d="M-531.3-436.3c-0.9-0.3-0.9-1-0.9-1.7C-530.9-438-531.1-437.1-531.3-436.3z"/>
	<path fill="#808080" d="M-60.3-428.1L-60.3-428.1c-0.1-0.8-0.1-1.7-0.1-2.5l0.1,0C-60.3-429.8-60.3-429-60.3-428.1z"/>
	<path fill="#808080" d="M322.9-416.1c-0.2,0.2-0.5,0.5-0.7,0.7C322.2-415.8,322.4-416,322.9-416.1z"/>
	<path fill="#808080" d="M323.7-417.1c-0.1,0.5-0.3,0.8-0.8,0.9C323-416.7,323.2-417,323.7-417.1z"/>
	<polygon fill="#808080" points="-540.7,-422.3 -540.6,-422.1 -540.8,-422.1 -540.9,-422.3 	"/>
	<path fill="#808080" d="M229-398.4c-0.4-0.1-0.5-0.4-0.5-0.8C228.9-399,229.1-398.8,229-398.4z"/>
	<path fill="#808080" d="M316.4-408.4c-0.1,0.5-0.4,0.9-0.9,1C315.6-407.8,315.9-408.2,316.4-408.4z"/>
	<path fill="#808080" d="M317.5-409.7c-0.2,0.2-0.4,0.4-0.6,0.7C316.9-409.4,317.1-409.6,317.5-409.7z"/>
	<path fill="#808080" d="M227.6-402.2c-0.1-0.1-0.2-0.3-0.1-0.4l0.2,0.2L227.6-402.2z"/>
	<path fill="#808080" d="M318.3-410.7c-0.2,0.3-0.5,0.5-0.7,0.8C317.7-410.4,317.9-410.6,318.3-410.7z"/>
	<path fill="#808080" d="M-500.2-356.7c4-1.4,14.8-1.5,18.5-0.4C-484.2-355.9-493.7-355.6-500.2-356.7z"/>
	<path fill="#808080" d="M-485.9-384.4c-2.1,0.1-4.2,0.2-6.3,0.3c-0.3,0-0.7-0.5-0.9-0.9c-0.2-0.5,0.1-1,0.5-1.1
		c2.4-0.6,4.8-0.9,6.9,0.6C-485.8-385.2-485.8-384.8-485.9-384.4z"/>
	<path fill="#808080" d="M-480.3-368.3c0.5,0,0.8,0.3,0.9,0.8c0.1,0.4,0,1-0.4,1.1c-0.7,0.2-1.1-0.3-1.1-1
		C-481-367.8-480.8-368.2-480.3-368.3z"/>
	<path fill="#808080" d="M-783.9-438.1c-0.2,0.2-0.3,0.7-0.5,0.7c-0.7,0-0.6-0.4-0.4-0.8c0.1-0.2,0.4-0.4,0.6-0.6
		C-784-438.6-784-438.3-783.9-438.1z"/>
	<path fill="#808080" d="M58.3-337.1c-0.2,0.1-0.4,0.4-0.6,0.4c-0.5-0.1-0.6-0.4-0.4-0.8c0.1-0.2,0.5-0.3,0.7-0.2
		C58.2-337.7,58.2-337.4,58.3-337.1z"/>
	<path fill="#808080" d="M-203.2-367.5c-0.1-0.2-0.3-0.4-0.3-0.6c0-0.1,0.2-0.3,0.3-0.4c0.1,0.1,0.2,0.2,0.2,0.3
		C-203-367.9-203.1-367.7-203.2-367.5z"/>
	<path fill="#808080" d="M-495.4-385c0.4,0.1,0.6,0.3,0.4,0.5c-0.2,0.2-0.4,0-0.5-0.4L-495.4-385z"/>
	<path fill="#808080" d="M-495.5-384.8c-0.1-0.2-0.3-0.3-0.4-0.5c0.3-0.1,0.5,0,0.5,0.4L-495.5-384.8z"/>
	<path fill="#808080" d="M562.2-381.3c0,1,0,1.9,0,2.9l-0.1,0c0-1,0-1.9,0-2.9L562.2-381.3z"/>
</g>
<rect x="-827.6" y="-225.7" fill="#808080" width="2155.4" height="123.8"/>
</svg>
